<?xml version="1.0" encoding="UTF-8"?>
<svg version="1.1" xmlns="http://www.w3.org/2000/svg" width="888" height="846">
<path d="M0 0 C293.04 0 586.08 0 888 0 C888 279.18 888 558.36 888 846 C594.96 846 301.92 846 0 846 C0 566.82 0 287.64 0 0 Z " fill="#0F1B26" transform="translate(0,0)"/>
<path d="M0 0 C2.79181695 2.21419965 5.45374154 4.5131488 8.09375 6.90625 C8.58085449 7.34420898 9.06795898 7.78216797 9.56982422 8.23339844 C32.41156453 29.02796704 41.76350283 57.14783578 47.3581543 86.77368164 C48.39849325 92.16683869 49.47559048 97.04774132 52.09375 101.90625 C53.08375 102.23625 54.07375 102.56625 55.09375 102.90625 C59.46584891 87.99599083 56.31499675 68.88031543 53.09375 53.90625 C52.95984863 53.24625 52.82594727 52.58625 52.68798828 51.90625 C50.49321062 41.35003456 46.35372767 32.22364077 41.09375 22.90625 C40.50980469 21.86726563 39.92585937 20.82828125 39.32421875 19.7578125 C31.74638337 7.44176632 20.47754679 -3.60519524 8.09375 -11.09375 C13.74988296 -16.74988296 24.63066893 -16.47803172 32.16015625 -16.50390625 C33.29324219 -16.49230469 34.42632813 -16.48070312 35.59375 -16.46875 C36.72683594 -16.48035156 37.85992188 -16.49195313 39.02734375 -16.50390625 C49.83570088 -16.46676413 59.61808732 -14.42246597 69.21875 -9.40625 C69.89760254 -9.05667236 70.57645508 -8.70709473 71.27587891 -8.34692383 C91.93925633 2.61897276 106.40716568 23.38751235 113.5234375 45.3671875 C122.95362167 77.28747129 126.87010327 112.57967815 111.09863281 143.12402344 C102.31527158 158.70189929 86.78431722 168.32205229 69.98974609 173.17114258 C46.90551517 179.1810704 20.99063395 178.13304083 0.03125 166.15625 C-16.62276842 155.62003426 -27.68611924 140.16886016 -32.38623047 120.94287109 C-35.41496582 107.21412559 -36.10902534 93.60552946 -36.38305664 79.58227539 C-36.8736158 55.49200201 -41.38154689 36.95663778 -58.90625 19.90625 C-61.46043512 17.68579987 -64.06630719 15.74204817 -66.90625 13.90625 C-67.916875 13.205 -68.9275 12.50375 -69.96875 11.78125 C-82.27432895 5.201757 -96.31915825 5.13397759 -109.90625 4.90625 C-109.90625 4.24625 -109.90625 3.58625 -109.90625 2.90625 C-78.32082278 -25.4441707 -33.84975451 -24.38638228 0 0 Z " fill="#B7423B" transform="translate(491.90625,356.09375)"/>
<path d="M0 0 C1.41603425 0.46001052 2.83103404 0.92320598 4.24560547 1.38769531 C5.42774124 1.77408173 5.42774124 1.77408173 6.63375854 2.16827393 C10.25653391 3.44166753 13.67512677 5.07261392 17.125 6.75 C18.62745927 7.46905284 20.13006596 8.18779772 21.6328125 8.90625 C22.37305664 9.26203125 23.11330078 9.6178125 23.87597656 9.984375 C26.90508413 11.43277586 29.95269316 12.84036146 33 14.25 C39.59267555 17.31257714 46.13933999 20.46860488 52.6875 23.625 C65.5966461 29.84515992 78.58847845 35.88004702 91.59936523 41.88354492 C93.07527259 42.56994016 94.54413162 43.27206581 96 44 C96 102.08 96 160.16 96 220 C91.76275468 218.58758489 88.54281375 217.36383841 84.7265625 215.27734375 C83.74598877 214.74391357 82.76541504 214.2104834 81.75512695 213.66088867 C80.72218506 213.09217041 79.68924316 212.52345215 78.625 211.9375 C77.54500732 211.34751221 76.46501465 210.75752441 75.35229492 210.1496582 C69.04438611 206.6964372 62.75819116 203.20640536 56.50146484 199.66137695 C49.61327404 195.76363083 42.68086886 191.94611185 35.75 188.125 C34.81113449 187.60718964 34.81113449 187.60718964 33.853302 187.07891846 C27.47960718 183.5639246 21.1031249 180.05416242 14.71875 176.55859375 C13.78579102 176.04731934 12.85283203 175.53604492 11.89160156 175.00927734 C10.17045654 174.06662435 8.44849064 173.12546811 6.72558594 172.18603516 C1.11082616 169.11082616 1.11082616 169.11082616 0 168 C-0.09695318 165.83573826 -0.12186765 163.66824747 -0.12025452 161.5018158 C-0.12110894 160.81492457 -0.12196337 160.12803335 -0.12284368 159.42032725 C-0.12450045 157.10172545 -0.11897393 154.78319483 -0.11352539 152.46459961 C-0.11324354 150.80930076 -0.11340122 149.15400178 -0.1139679 147.498703 C-0.11425594 142.99063067 -0.10835819 138.48258471 -0.10139394 133.97451854 C-0.09516145 129.26862263 -0.09455668 124.56272618 -0.09336853 119.85682678 C-0.0902549 110.93911366 -0.08204109 102.02141273 -0.07201904 93.10370499 C-0.06085888 82.95393703 -0.0553477 72.8041685 -0.05032361 62.65439594 C-0.03985851 41.76959047 -0.02225846 20.884796 0 0 Z " fill="#A7733C" transform="translate(220,353)"/>
<path d="M0 0 C12.54 0 25.08 0 38 0 C37.32988046 15.19423215 36.26071022 30.33344548 35.07287598 45.49514771 C34.50835938 52.70571167 33.95483789 59.91711414 33.40625 67.12890625 C33.3489698 67.88189688 33.29168961 68.6348875 33.23267365 69.41069603 C31.60392461 90.88708685 30.18261905 112.37803891 28.76863098 133.86947155 C28.56629319 136.94118065 28.36261347 140.01280013 28.15882874 143.08441353 C28.02023828 145.18401644 27.88399471 147.28376214 27.7479248 149.38352966 C27.31351359 155.94697412 26.79656465 162.47021918 26 169 C25.16176445 169.03092239 25.16176445 169.03092239 24.30659485 169.06246948 C19.36959019 169.24463163 14.43259404 169.42702166 9.49560547 169.60961914 C4.63918602 169.78920274 -0.2172633 169.96795214 -5.07373047 170.14624023 C-17.23611861 170.5938603 -29.39789903 171.0513529 -41.55859375 171.54296875 C-66.3339356 172.53633571 -91.09566637 173.29842078 -115.88916016 173.65844727 C-128.12231899 173.82844198 -128.12231899 173.82844198 -140.3359375 174.49609375 C-151.61827139 175.34574713 -162.94137961 175.33070071 -174.25 175.5 C-179.21879627 175.57935013 -184.18753357 175.66190004 -189.15625 175.74609375 C-190.37076843 175.76655258 -191.58528687 175.78701141 -192.83660889 175.80809021 C-202.14578513 175.97094395 -211.44479096 176.24608724 -220.75 176.5625 C-243.49315385 177.13931912 -266.24953259 177 -289 177 C-289 119.25 -289 61.5 -289 2 C-199.32312355 0.16985966 -199.32312355 0.16985966 -195.11230469 2.81176758 C-190.37266306 7.72177774 -189.86528025 13.25314002 -189.421875 19.78515625 C-189.3403418 20.95054932 -189.25880859 22.11594238 -189.17480469 23.31665039 C-189.11711914 24.20215576 -189.05943359 25.08766113 -189 26 C-189.84302673 26.00364563 -190.68605347 26.00729126 -191.55462646 26.01104736 C-199.50033405 26.04891784 -207.44563079 26.10575949 -215.39104843 26.18390274 C-219.47588455 26.2234082 -223.56050411 26.25558137 -227.64550781 26.27099609 C-231.58799676 26.28614286 -235.52989049 26.32055206 -239.47211456 26.36830902 C-240.97594275 26.38314347 -242.4798559 26.3910422 -243.98375702 26.39188385 C-246.0910534 26.39424927 -248.19669909 26.42128938 -250.30371094 26.45410156 C-252.10240631 26.46742523 -252.10240631 26.46742523 -253.93743896 26.48101807 C-257.59215513 27.10034667 -258.77248049 28.09308694 -261 31 C-261.68150195 33.3732585 -261.68150195 33.3732585 -261.71484375 36.04296875 C-261.7701123 37.11337402 -261.82538086 38.1837793 -261.88232422 39.28662109 C-261.92115723 40.51203613 -261.95999023 41.73745117 -262 43 C-262.05341432 44.39274603 -262.10696959 45.78548665 -262.16064453 47.17822266 C-262.33939971 52.22205258 -262.45447323 57.26672635 -262.5625 62.3125 C-262.58334656 63.24678833 -262.60419312 64.18107666 -262.62567139 65.14367676 C-263.0227355 83.46070007 -263.10907527 101.77750535 -263.12293625 120.0981102 C-263.12500354 122.25369379 -263.12876684 124.40926921 -263.13284302 126.56484985 C-263.13977742 130.61096289 -263.13713884 134.65700808 -263.1328125 138.703125 C-263.13479141 139.93328842 -263.13677032 141.16345184 -263.1388092 142.43089294 C-263.13570236 143.5484346 -263.13259552 144.66597626 -263.12939453 145.81738281 C-263.12859894 146.79862122 -263.12780334 147.77985962 -263.12698364 148.79083252 C-263.24725672 150.97453121 -263.24725672 150.97453121 -262 152 C-260.45861458 152.09878484 -258.91271108 152.12798959 -257.36816406 152.12939453 C-256.37051025 152.13250641 -255.37285645 152.13561829 -254.3449707 152.13882446 C-253.24628662 152.13684052 -252.14760254 152.13485657 -251.015625 152.1328125 C-249.87472412 152.13413177 -248.73382324 152.13545105 -247.55834961 152.1368103 C-243.7888732 152.13874672 -240.01946907 152.13233153 -236.25 152.125 C-234.31175354 152.12367065 -234.31175354 152.12367065 -232.33435059 152.12231445 C-215.63339206 152.10889049 -198.94531976 151.94104101 -182.25 151.5 C-165.26953634 151.0522081 -148.29892115 150.88779755 -131.3125 150.875 C-129.58694885 150.87125366 -129.58694885 150.87125366 -127.82653809 150.86743164 C-124.54708846 150.86153399 -121.26773193 150.86302348 -117.98828125 150.8671875 C-116.54123558 150.86421158 -116.54123558 150.86421158 -115.06495667 150.86117554 C-109.71908389 150.87931834 -104.48575503 151.16185279 -99.17312622 151.76608276 C-86.20397851 153.16209334 -72.58408111 151.77323894 -59.97900391 148.47045898 C-56.58224106 147.66296305 -53.10134219 147.65102646 -49.625 147.5 C-48.75246582 147.45794434 -47.87993164 147.41588867 -46.98095703 147.37255859 C-40.41008107 147.08059256 -33.84140295 146.93257217 -27.265625 146.8203125 C-25.53954584 146.78736715 -23.81347162 146.75416233 -22.08740234 146.72070312 C-19.48199434 146.6702015 -16.87704794 146.62502247 -14.27130127 146.59643555 C-11.80286723 146.56934161 -9.33529199 146.52450812 -6.8671875 146.4765625 C-5.74343719 146.47174362 -5.74343719 146.47174362 -4.59698486 146.46682739 C-1.74608839 146.3985546 0.46395856 146.32377119 2.93896484 144.82885742 C4.41099514 142.2915866 4.58865831 140.18419212 4.84375 137.26171875 C5.00919312 135.47205688 5.00919312 135.47205688 5.17797852 133.64624023 C5.28424561 132.33985596 5.3905127 131.03347168 5.5 129.6875 C5.62135291 128.30728817 5.74368965 126.92716253 5.86694336 125.54711914 C6.19584804 121.81292446 6.50556866 118.07738588 6.80926514 114.34106445 C7.00053587 111.99342283 7.19538551 109.64610204 7.39111328 107.29882812 C8.250751 96.95620993 9.06008911 86.61024822 9.8314209 76.26068115 C9.94196514 74.77825962 10.05303085 73.29587686 10.16467285 71.8135376 C11.31552195 56.53262457 12.37392454 41.33090608 12 26 C9.69 25.67 7.38 25.34 5 25 C4.88406494 24.38479492 4.76812988 23.76958984 4.64868164 23.13574219 C4.12116829 20.34026415 3.59185297 17.54513024 3.0625 14.75 C2.88009766 13.78191406 2.69769531 12.81382812 2.50976562 11.81640625 C2.33251953 10.88183594 2.15527344 9.94726562 1.97265625 8.984375 C1.72914429 7.69611816 1.72914429 7.69611816 1.48071289 6.38183594 C1.04868224 4.24121074 0.5296462 2.11858482 0 0 Z " fill="#A6723B" transform="translate(624,401)"/>
<path d="M0 0 C15.93620649 -0.84967926 27.20682637 2.25937434 39.828125 12.48046875 C56.13703194 27.35683656 60.42180069 50.81723686 64.12109375 71.53515625 C64.30313354 72.54582153 64.48517334 73.55648682 64.67272949 74.59777832 C65.11685254 77.06488551 65.55923973 79.53229022 66 82 C76.40470603 82.32516188 86.80819448 82.57350999 97.21695614 82.72537041 C102.05117305 82.79828212 106.88190235 82.89704452 111.71411133 83.05615234 C116.38287264 83.20890652 121.04829426 83.29209566 125.71936226 83.3282814 C127.49596328 83.35404401 129.27239189 83.40436571 131.04755974 83.48022079 C139.19463225 83.93579759 139.19463225 83.93579759 147 82 C149.57255461 79.42497495 151.03693977 76.29259127 152.65692902 73.07000065 C154.54965678 69.56823996 155.62609356 68.14769862 159.38044739 66.66467285 C163.59302048 66.16851684 167.60855387 66.0745616 171.83984375 66.17578125 C173.37246649 66.16887428 174.90507522 66.15766191 176.43763733 66.14237976 C179.63946596 66.1263166 182.83579099 66.15989178 186.03686523 66.22973633 C190.11666811 66.31509466 194.18470753 66.27960632 198.26439571 66.20692158 C201.42682318 66.16355608 204.58653278 66.18325717 207.74893379 66.22145653 C209.25062671 66.23254565 210.75258894 66.22502994 212.25407219 66.1975956 C223.56227774 66.0436886 223.56227774 66.0436886 227.65407181 69.32741928 C230.96798215 72.75927715 236 78.05992603 236 83 C267.35 82.67 298.7 82.34 331 82 C328.51288183 54.64170014 321.79705958 25.08202283 301.8125 4.84765625 C300 3 300 3 298 0 C313.03865427 0.76467734 325.27359277 7.84413962 335.625 18.5 C356.93517966 43.35552261 361 75.53562047 361 107 C253.75 107 146.5 107 36 107 C34.68 97.43 33.36 87.86 32 78 C26.56896267 50.72412364 19.2571564 25.08938913 1.6171875 3.0546875 C0 1 0 1 0 0 Z " fill="#A6723B" transform="translate(293,146)"/>
<path d="M0 0 C4.77732587 2.81063494 8.5959191 6.53699046 12.4765625 10.45703125 C13.41822266 11.34841797 13.41822266 11.34841797 14.37890625 12.2578125 C20.50845078 18.52634897 23.89844871 26.57172092 27.4765625 34.45703125 C28.02570313 35.65585938 28.57484375 36.8546875 29.140625 38.08984375 C36.19896313 54.5592994 39.20899066 72.20048283 41.14941406 89.92236328 C41.54387949 92.97858724 42.15368023 95.96021505 42.85107422 98.96069336 C43.23195367 102.37635791 43.17016986 105.07048877 42.4765625 108.45703125 C40.34118442 110.41700469 38.66382152 111.63974586 36.203125 113.0546875 C34.81771549 113.91337787 33.43349934 114.77399571 32.05029297 115.63623047 C31.30696716 116.09004089 30.56364136 116.54385132 29.79779053 117.01141357 C25.73047249 119.54446366 21.79275351 122.26766581 17.8359375 124.96875 C16.10462753 126.14118198 14.37276301 127.31279543 12.64038086 128.48364258 C11.75639618 129.08157623 10.8724115 129.67950989 9.9616394 130.29556274 C-4.41089937 140.01169595 -18.80341738 149.69748894 -33.28479004 159.25088501 C-34.81421 160.26022836 -36.34261951 161.27110454 -37.86999512 162.28353882 C-39.97144776 163.67554128 -42.07679689 165.06141635 -44.18359375 166.4453125 C-44.80232864 166.85633209 -45.42106354 167.26735168 -46.05854797 167.69082642 C-50.29393243 170.45703125 -50.29393243 170.45703125 -52.5234375 170.45703125 C-64.40876123 124.03311712 -72.97408573 69.52315484 -49.21484375 25.23046875 C-38.69167457 7.97538765 -21.66239879 -9.73088708 0 0 Z " fill="#A6723B" transform="translate(267.5234375,148.54296875)"/>
<path d="M0 0 C27.45131212 -0.14026177 54.90257041 -0.2460162 82.35416889 -0.31087303 C95.10089928 -0.34178979 107.84740681 -0.38392908 120.59399414 -0.45263672 C131.70601099 -0.51250493 142.81786641 -0.55116498 153.93004006 -0.56453097 C159.81204128 -0.57234204 165.69358074 -0.59065518 171.57543373 -0.63438034 C177.11669689 -0.67523815 182.65730999 -0.68764223 188.19870949 -0.67864609 C190.22755979 -0.68029082 192.25643282 -0.69214677 194.28515244 -0.71523285 C205.19444657 -0.83324147 213.95215089 -0.92596728 223 6 C223.81063054 6.60014734 224.62126108 7.20029469 225.45645618 7.81862831 C239.56931158 18.76097374 247.4408616 39.00913827 251 56 C251.02963487 57.66640318 251.03569328 59.33371558 251 61 C242.88962535 61.16247275 234.77993477 61.28670769 226.66833305 61.3626852 C222.90134929 61.39915877 219.13548187 61.44859419 215.36914062 61.52807617 C211.73155956 61.60435704 208.09504925 61.64603449 204.45672989 61.6641407 C203.07155629 61.67703628 201.68643882 61.70222086 200.30172348 61.7401104 C189.41214633 62.02612095 189.41214633 62.02612095 186.12994385 59.6411438 C184.72705078 57.89477539 184.72705078 57.89477539 183.41999817 55.9961853 C180.12099437 51.35855756 175.74038936 47.73390317 170.04354477 46.6161232 C164.31812728 45.96892481 158.57618456 46.09494694 152.82421875 46.17578125 C150.96719075 46.17868889 149.11015723 46.17906867 147.25312805 46.17704773 C143.37881255 46.18025114 139.50564101 46.20705837 135.6315918 46.25219727 C130.67043231 46.3090625 125.71068769 46.31703482 120.74925518 46.30878925 C116.92213355 46.30599106 113.0953268 46.32359602 109.26828957 46.34792137 C107.43869949 46.35811602 105.60907366 46.36322895 103.77945518 46.36312294 C101.225615 46.36709503 98.67341161 46.39724619 96.11987305 46.43481445 C95.36809784 46.43143066 94.61632263 46.42804688 93.84176636 46.42456055 C90.34613134 46.50262509 88.16931488 46.89828081 85.15196228 48.71101379 C82.89423101 51.11250372 81.78316241 53.19425813 80.44873047 56.18896484 C77.83130327 60.7163812 77.83130327 60.7163812 74.42584229 61.87823486 C71.18055963 62.15886581 68.07439376 62.12541128 64.8203125 61.9765625 C63.6524118 61.96241302 62.48451111 61.94826355 61.28121948 61.9336853 C57.55984453 61.87781067 53.84454647 61.75238173 50.125 61.625 C47.59904545 61.57483048 45.07299627 61.52920468 42.546875 61.48828125 C36.36251859 61.37817294 30.18169327 61.21097113 24 61 C23.81099121 60.00637451 23.62198242 59.01274902 23.42724609 57.98901367 C21.62562679 48.65815221 19.28599209 39.93593671 16 31 C15.42958984 29.43958984 15.42958984 29.43958984 14.84765625 27.84765625 C11.48362892 19.22804414 6.93208791 11.07821219 1.2578125 3.75 C0 2 0 2 0 0 Z " fill="#7F4523" transform="translate(351,150)"/>
<path d="M0 0 C1.062258 -0.0127597 2.12451599 -0.02551941 3.21896362 -0.03866577 C4.37405426 -0.04089142 5.5291449 -0.04311707 6.71923828 -0.04541016 C8.50347702 -0.05539536 8.50347702 -0.05539536 10.32376099 -0.06558228 C12.85075329 -0.07572984 15.3777725 -0.08039865 17.90478516 -0.08007812 C21.73923313 -0.08441574 25.57249689 -0.12061601 29.40673828 -0.15869141 C31.8650677 -0.16456648 34.32340256 -0.16853125 36.78173828 -0.17041016 C37.91658661 -0.18478119 39.05143494 -0.19915222 40.22067261 -0.21395874 C52.94705239 -0.14236414 63.47252433 3.66409122 72.91455078 12.29052734 C80.09145306 20.96126449 80.64119724 30.37929637 79.91455078 41.29052734 C78.66816424 48.51747453 74.93887679 55.05099054 69.19189453 59.67724609 C67.80623637 60.61084556 66.36523321 61.46156596 64.91455078 62.29052734 C65.90455078 63.06396484 65.90455078 63.06396484 66.91455078 63.85302734 C75.10078266 70.50434074 81.31133552 75.62503359 83.91455078 86.29052734 C85.16382527 98.95422554 83.43616593 109.10400704 75.22705078 119.22802734 C68.51741602 126.20301489 59.50449502 129.91044279 49.88085938 130.46549988 C46.25504875 130.52132713 42.63442421 130.51528665 39.00830078 130.48583984 C37.67452203 130.48210278 36.3407405 130.47925909 35.00695801 130.4772644 C31.52173077 130.46968241 28.03667418 130.4500817 24.55151367 130.42785645 C20.98504951 130.40727991 17.41855738 130.39823761 13.85205078 130.38818359 C6.87281468 130.36682979 -0.10630904 130.33276074 -7.08544922 130.29052734 C-7.13212382 113.63595066 -7.16741573 96.98139511 -7.18907356 80.32676888 C-7.19939595 72.59412579 -7.2134746 64.86152329 -7.23632812 57.12890625 C-7.25623262 50.39091143 -7.26915865 43.652946 -7.27362621 36.9149226 C-7.2762386 33.34559993 -7.28239866 29.77636135 -7.29690933 26.20706558 C-7.31295854 22.22722013 -7.3134308 18.24745771 -7.3125 14.26757812 C-7.31969055 13.07787415 -7.3268811 11.88817017 -7.33428955 10.66241455 C-7.33154022 9.5826535 -7.32879089 8.50289246 -7.32595825 7.39041138 C-7.32780184 6.44833895 -7.32964542 5.50626652 -7.33154488 4.53564644 C-6.81946539 -0.13603065 -3.99442084 0.03251897 0 0 Z " fill="#F2E1C4" transform="translate(546.08544921875,638.70947265625)"/>
<path d="M0 0 C1.20970459 0.00523682 2.41940918 0.01047363 3.66577148 0.01586914 C4.97094727 0.0190918 6.27612305 0.02231445 7.62084961 0.02563477 C9.00952213 0.03399138 10.39819401 0.04245634 11.78686523 0.05102539 C13.17944179 0.05603873 14.57202005 0.06060193 15.96459961 0.06469727 C19.38456394 0.07653105 22.80444367 0.09301659 26.22436523 0.11352539 C32.13556109 12.30018419 38.03959968 24.4797215 43.47827148 36.88598633 C46.60582164 44.01905357 49.90015759 51.07036045 53.22436523 58.11352539 C61.12321855 43.20443975 67.07109331 27.53727718 72.80249023 11.69165039 C74.39333646 7.6883121 76.25134599 3.94152 78.22436523 0.11352539 C82.76334228 0.08887147 87.30228066 0.0706875 91.84130859 0.05859375 C93.38656289 0.05355399 94.9318124 0.0467222 96.47705078 0.03808594 C98.69361552 0.02600463 100.91011742 0.02029366 103.12670898 0.01586914 C103.82150864 0.01070786 104.51630829 0.00554657 105.23216248 0.00022888 C106.89665853 0.00003262 108.56102022 0.0516341 110.22436523 0.11352539 C111.89334367 1.78250382 111.35043082 3.79339541 111.35134888 6.08642578 C111.35557861 7.70183762 111.35557861 7.70183762 111.3598938 9.34988403 C111.35685745 11.13747635 111.35685745 11.13747635 111.35375977 12.96118164 C111.35638824 14.83167679 111.35638824 14.83167679 111.35906982 16.73995972 C111.36272813 20.16963143 111.36185484 23.59924318 111.35869074 27.02891159 C111.35616685 30.61058384 111.35850476 34.19225344 111.3600769 37.77392578 C111.36189851 43.78979963 111.35949252 49.80566122 111.35473633 55.8215332 C111.34929372 62.78624866 111.35105638 69.75093485 111.35656273 76.7156496 C111.36109411 82.68506528 111.36174429 88.65447213 111.35912406 94.62388897 C111.35756142 98.19369169 111.35736717 101.76348063 111.36066055 105.33328247 C111.36407348 109.31082302 111.35934913 113.28833053 111.35375977 117.26586914 C111.355784 118.45759735 111.35780823 119.64932556 111.3598938 120.87716675 C111.35707397 121.95410797 111.35425415 123.03104919 111.35134888 124.140625 C111.35078334 125.55316811 111.35078334 125.55316811 111.35020638 126.99424744 C111.22436523 129.11352539 111.22436523 129.11352539 110.22436523 130.11352539 C101.64436523 130.11352539 93.06436523 130.11352539 84.22436523 130.11352539 C84.22436523 105.69352539 84.22436523 81.27352539 84.22436523 56.11352539 C83.56436523 56.11352539 82.90436523 56.11352539 82.22436523 56.11352539 C81.99491211 56.88180664 81.76545898 57.65008789 81.52905273 58.44165039 C79.76956302 63.39350766 77.55811506 68.09829254 75.34936523 72.86352539 C72.82218079 78.32284371 70.32665409 83.76586677 68.13842773 89.37133789 C66.50948052 93.5156559 64.62988566 97.34200769 62.47436523 101.23852539 C61.86077148 102.35485352 61.24717773 103.47118164 60.61499023 104.62133789 C60.15608398 105.44375977 59.69717773 106.26618164 59.22436523 107.11352539 C55.45327594 107.58903928 51.97841515 107.79222368 48.22436523 107.11352539 C45.67023352 104.86401489 44.55256848 102.20558255 43.22436523 99.11352539 C42.53926186 97.82058595 41.85181322 96.52888612 41.16186523 95.23852539 C39.77585778 92.38381314 38.57292621 89.49947234 37.43139648 86.53930664 C34.82703664 79.97624747 31.70281764 73.68390983 28.58374023 67.35375977 C28.15061523 66.46108398 27.71749023 65.5684082 27.27124023 64.64868164 C26.87775391 63.84825439 26.48426758 63.04782715 26.07885742 62.22314453 C25.22436523 60.11352539 25.22436523 60.11352539 25.22436523 57.11352539 C24.56436523 57.11352539 23.90436523 57.11352539 23.22436523 57.11352539 C23.22658585 58.01332626 23.22880646 58.91312714 23.23109436 59.8401947 C23.25109468 68.30166506 23.26633804 76.76312753 23.27617741 85.22461605 C23.28140588 89.57520998 23.28850289 93.92578446 23.29980469 98.27636719 C23.31063483 102.47142797 23.31664234 106.66646998 23.31924248 110.86154366 C23.3210965 112.46559507 23.32471668 114.06964542 23.33009529 115.67368889 C23.33730742 117.91269054 23.33835611 120.15161369 23.33789062 122.390625 C23.34011124 123.66747665 23.34233185 124.94432831 23.34461975 126.25987244 C23.22436523 129.11352539 23.22436523 129.11352539 22.22436523 130.11352539 C20.38277501 130.2131216 18.53739556 130.2443295 16.69311523 130.24633789 C15.57291992 130.24762695 14.45272461 130.24891602 13.29858398 130.25024414 C12.1190918 130.24637695 10.93959961 130.24250977 9.72436523 130.23852539 C7.95512695 130.24432617 7.95512695 130.24432617 6.15014648 130.25024414 C4.46985352 130.24831055 4.46985352 130.24831055 2.75561523 130.24633789 C1.71985352 130.24520996 0.6840918 130.24408203 -0.38305664 130.24291992 C-2.77563477 130.11352539 -2.77563477 130.11352539 -3.77563477 129.11352539 C-3.87392276 127.45826716 -3.90195453 125.79879867 -3.90261841 124.140625 C-3.90543823 123.06368378 -3.90825806 121.98674255 -3.91116333 120.87716675 C-3.9091391 119.68543854 -3.90711487 118.49371033 -3.9050293 117.26586914 C-3.90678162 116.01887238 -3.90853394 114.77187561 -3.91033936 113.48709106 C-3.91399766 110.05741935 -3.91312437 106.6278076 -3.90996027 103.19813919 C-3.90743638 99.61646695 -3.90977429 96.03479734 -3.91134644 92.453125 C-3.91316805 86.43725115 -3.91076205 80.42138957 -3.90600586 74.40551758 C-3.90056325 67.44080212 -3.90232592 60.47611593 -3.90783226 53.51140118 C-3.91236364 47.5419855 -3.91301382 41.57257865 -3.9103936 35.60316181 C-3.90883095 32.03335909 -3.9086367 28.46357015 -3.91193008 24.89376831 C-3.91534301 20.91622776 -3.91061866 16.93872025 -3.9050293 12.96118164 C-3.90806564 11.17358932 -3.90806564 11.17358932 -3.91116333 9.34988403 C-3.90834351 8.27294281 -3.90552368 7.19600159 -3.90261841 6.08642578 C-3.90224138 5.14473038 -3.90186436 4.20303497 -3.90147591 3.23280334 C-3.70841475 -0.01852003 -3.29725342 0.13485996 0 0 Z " fill="#F1E1C4" transform="translate(248.775634765625,638.886474609375)"/>
<path d="M0 0 C1.20970459 0.00523682 2.41940918 0.01047363 3.66577148 0.01586914 C4.97094727 0.0190918 6.27612305 0.02231445 7.62084961 0.02563477 C9.00952213 0.03399138 10.39819401 0.04245634 11.78686523 0.05102539 C13.17944179 0.05603873 14.57202005 0.06060193 15.96459961 0.06469727 C19.38456394 0.07653105 22.80444367 0.09301659 26.22436523 0.11352539 C37.14456545 25.58038847 37.14456545 25.58038847 40.47436523 34.73852539 C43.37393321 42.69114165 46.75591714 50.39674147 50.22436523 58.11352539 C59.18141478 41.53408601 65.66303016 23.71604959 72.06811523 6.02758789 C73.22436523 3.11352539 73.22436523 3.11352539 75.22436523 0.11352539 C78.18945312 -0.24291992 78.18945312 -0.24291992 81.94702148 -0.21459961 C82.60770126 -0.21272644 83.26838104 -0.21085327 83.94908142 -0.20892334 C85.3453374 -0.20220071 86.74157448 -0.18828178 88.13769531 -0.16772461 C90.28199637 -0.13654541 92.42556303 -0.12675259 94.57006836 -0.12084961 C105.06098847 -0.04985137 105.06098847 -0.04985137 106.22436523 1.11352539 C106.32265323 2.76878362 106.350685 4.42825211 106.35134888 6.08642578 C106.35557861 7.70183762 106.35557861 7.70183762 106.3598938 9.34988403 C106.35685745 11.13747635 106.35685745 11.13747635 106.35375977 12.96118164 C106.35638824 14.83167679 106.35638824 14.83167679 106.35906982 16.73995972 C106.36272813 20.16963143 106.36185484 23.59924318 106.35869074 27.02891159 C106.35616685 30.61058384 106.35850476 34.19225344 106.3600769 37.77392578 C106.36189851 43.78979963 106.35949252 49.80566122 106.35473633 55.8215332 C106.34929372 62.78624866 106.35105638 69.75093485 106.35656273 76.7156496 C106.36109411 82.68506528 106.36174429 88.65447213 106.35912406 94.62388897 C106.35756142 98.19369169 106.35736717 101.76348063 106.36066055 105.33328247 C106.36407348 109.31082302 106.35934913 113.28833053 106.35375977 117.26586914 C106.355784 118.45759735 106.35780823 119.64932556 106.3598938 120.87716675 C106.35707397 121.95410797 106.35425415 123.03104919 106.35134888 124.140625 C106.35078334 125.55316811 106.35078334 125.55316811 106.35020638 126.99424744 C106.22436523 129.11352539 106.22436523 129.11352539 105.22436523 130.11352539 C101.25160708 130.36609416 97.26670348 130.2987499 93.28686523 130.30102539 C92.16344727 130.31327148 91.0400293 130.32551758 89.88256836 130.33813477 C88.81071289 130.34006836 87.73885742 130.34200195 86.63452148 130.34399414 C85.64589111 130.34810303 84.65726074 130.35221191 83.63867188 130.35644531 C81.22436523 130.11352539 81.22436523 130.11352539 79.22436523 128.11352539 C78.94589233 125.21554565 78.94589233 125.21554565 78.90551758 121.46069336 C78.89547195 120.77765137 78.88542633 120.09460938 78.87507629 119.39086914 C78.84414153 117.1291591 78.82718101 114.86756795 78.81030273 112.60571289 C78.79159932 111.03914357 78.77202653 109.4725844 78.75161743 107.90603638 C78.70020271 103.77970356 78.66062721 99.65333805 78.62347412 95.52685547 C78.58349282 91.31738129 78.53237377 87.10804421 78.48217773 82.89868164 C78.38530795 74.6370564 78.30093879 66.37536354 78.22436523 58.11352539 C76.77203646 61.14007441 75.32581414 64.16950365 73.88061523 67.19946289 C73.47230469 68.05016357 73.06399414 68.90086426 72.64331055 69.77734375 C70.45433882 74.37462749 68.43541455 78.94263009 66.72436523 83.73852539 C63.72354957 91.93509963 59.41966678 99.48154981 55.22436523 107.11352539 C52.17426763 107.40127045 49.26520279 107.54338201 46.22436523 107.11352539 C44.34545898 104.96899414 44.34545898 104.96899414 43.22436523 102.11352539 C42.7409668 101.2021582 42.25756836 100.29079102 41.75952148 99.35180664 C39.06840765 94.00527014 36.57748442 88.67851293 34.42749023 83.09399414 C32.43280521 78.15261534 30.22421829 73.3056013 28.04125977 68.44506836 C27.70723145 67.70015137 27.37320313 66.95523438 27.02905273 66.18774414 C26.7298291 65.52347412 26.43060547 64.8592041 26.12231445 64.17480469 C25.10534546 61.84031062 24.1660741 59.47924579 23.22436523 57.11352539 C23.21405777 58.01332626 23.20375031 58.91312714 23.19313049 59.8401947 C23.09533182 68.30173325 22.99284303 76.76319899 22.88502598 85.22461605 C22.82975739 89.57517345 22.77633124 93.92573751 22.72705078 98.27636719 C22.67946509 102.47148749 22.62712466 106.66652351 22.57142448 110.86154366 C22.55097457 112.46557084 22.53226594 114.06962116 22.51529121 115.67368889 C22.49130526 117.91275308 22.46124329 120.15165655 22.4296875 122.390625 C22.41414322 123.66747665 22.39859894 124.94432831 22.38258362 126.25987244 C22.22436523 129.11352539 22.22436523 129.11352539 21.22436523 130.11352539 C19.45577331 130.21298992 17.68325073 130.24432756 15.91186523 130.24633789 C14.83678711 130.24762695 13.76170898 130.24891602 12.65405273 130.25024414 C11.52225586 130.24637695 10.39045898 130.24250977 9.22436523 130.23852539 C7.52666992 130.24432617 7.52666992 130.24432617 5.79467773 130.25024414 C4.71959961 130.24895508 3.64452148 130.24766602 2.53686523 130.24633789 C1.54299805 130.24520996 0.54913086 130.24408203 -0.47485352 130.24291992 C-2.77563477 130.11352539 -2.77563477 130.11352539 -3.77563477 129.11352539 C-3.87392276 127.45826716 -3.90195453 125.79879867 -3.90261841 124.140625 C-3.90543823 123.06368378 -3.90825806 121.98674255 -3.91116333 120.87716675 C-3.9091391 119.68543854 -3.90711487 118.49371033 -3.9050293 117.26586914 C-3.90678162 116.01887238 -3.90853394 114.77187561 -3.91033936 113.48709106 C-3.91399766 110.05741935 -3.91312437 106.6278076 -3.90996027 103.19813919 C-3.90743638 99.61646695 -3.90977429 96.03479734 -3.91134644 92.453125 C-3.91316805 86.43725115 -3.91076205 80.42138957 -3.90600586 74.40551758 C-3.90056325 67.44080212 -3.90232592 60.47611593 -3.90783226 53.51140118 C-3.91236364 47.5419855 -3.91301382 41.57257865 -3.9103936 35.60316181 C-3.90883095 32.03335909 -3.9086367 28.46357015 -3.91193008 24.89376831 C-3.91534301 20.91622776 -3.91061866 16.93872025 -3.9050293 12.96118164 C-3.90806564 11.17358932 -3.90806564 11.17358932 -3.91116333 9.34988403 C-3.90834351 8.27294281 -3.90552368 7.19600159 -3.90261841 6.08642578 C-3.90224138 5.14473038 -3.90186436 4.20303497 -3.90147591 3.23280334 C-3.70841475 -0.01852003 -3.29725342 0.13485996 0 0 Z " fill="#F1E1C4" transform="translate(69.775634765625,638.886474609375)"/>
<path d="M0 0 C2.67195356 -0.29188604 5.10879147 -0.39614259 7.78125 -0.36328125 C8.9351825 -0.36402901 8.9351825 -0.36402901 10.11242676 -0.36479187 C11.73985373 -0.36245006 13.36728423 -0.35271513 14.99462891 -0.33618164 C17.49023718 -0.31259228 19.98477739 -0.31561898 22.48046875 -0.32226562 C24.05990222 -0.31668887 25.63933118 -0.309579 27.21875 -0.30078125 C27.9677356 -0.30169266 28.71672119 -0.30260406 29.48840332 -0.30354309 C34.76897241 -0.23102759 34.76897241 -0.23102759 37 2 C37.64777483 3.92324128 38.21275241 5.87471872 38.734375 7.8359375 C39.05841309 9.03629639 39.38245117 10.23665527 39.71630859 11.47338867 C40.06087824 12.77392423 40.40544192 14.07446137 40.75 15.375 C41.46237289 18.02576497 42.17989286 20.67512085 42.8984375 23.32421875 C43.16565109 24.31217186 43.16565109 24.31217186 43.43826294 25.32008362 C45.18573234 31.7496493 47.09612219 38.12502956 49.09667969 44.47998047 C50.24034221 48.17749257 51.18996101 51.82208249 51.89111328 55.63012695 C52.93631071 60.94421445 54.39233603 66.07228528 55.96875 71.25 C56.24972534 72.18875977 56.53070068 73.12751953 56.82019043 74.09472656 C57.70916076 77.06446274 58.60382855 80.03242956 59.5 83 C60.68231963 86.91511777 61.85856935 90.83198568 63.03125 94.75 C63.29901245 95.62946289 63.5667749 96.50892578 63.84265137 97.41503906 C65.37395605 102.53349244 66.60587361 107.62712591 67.58027649 112.88102722 C68.24834161 116.25375181 69.38192174 119.43631588 70.51171875 122.67578125 C71.08691224 125.41370226 70.60922234 127.29592753 70 130 C65.54172074 130.0578304 61.0835372 130.09353855 56.625 130.125 C55.35398437 130.14175781 54.08296875 130.15851563 52.7734375 130.17578125 C51.56171875 130.18222656 50.35 130.18867187 49.1015625 130.1953125 C47.98088379 130.20578613 46.86020508 130.21625977 45.70556641 130.22705078 C43 130 43 130 41 128 C40.20754348 125.39414843 39.51057533 122.83102258 38.875 120.1875 C38.69324219 119.47529297 38.51148438 118.76308594 38.32421875 118.02929688 C37.37342633 114.16536225 37 111.02652789 37 107 C24.13 107 11.26 107 -2 107 C-2.66 110.3 -3.32 113.6 -4 117 C-4.50177188 119.19195086 -5.01913081 121.38048865 -5.5625 123.5625 C-5.81128906 124.57441406 -6.06007813 125.58632813 -6.31640625 126.62890625 C-7 129 -7 129 -8 130 C-9.99964982 130.08758003 -12.0023611 130.10696576 -14.00390625 130.09765625 C-15.21884766 130.09443359 -16.43378906 130.09121094 -17.68554688 130.08789062 C-18.96494141 130.07951172 -20.24433594 130.07113281 -21.5625 130.0625 C-22.84576172 130.05798828 -24.12902344 130.05347656 -25.45117188 130.04882812 C-28.63416022 130.03699545 -31.81705762 130.02051068 -35 130 C-36.40094448 125.43048742 -35.41808442 121.97334095 -34.015625 117.56640625 C-33.79936462 116.85201889 -33.58310425 116.13763153 -33.36029053 115.40159607 C-32.66762466 113.11844178 -31.95993757 110.8403371 -31.25 108.5625 C-30.33105493 105.58688368 -29.4194775 102.60914177 -28.515625 99.62890625 C-28.29133316 98.88993607 -28.06704132 98.15096588 -27.83595276 97.38960266 C-26.53084492 93.01247782 -25.44360013 88.6539568 -24.54296875 84.171875 C-22.65485768 74.8430541 -19.80138256 65.79409736 -17.0625 56.6875 C-13.66659436 45.3889243 -10.46042109 34.12493698 -7.8425293 22.61938477 C-6.85822279 18.39094548 -5.70778651 14.25488452 -4.375 10.125 C-4.06949219 9.13306641 -4.06949219 9.13306641 -3.7578125 8.12109375 C-2.78394819 5.04343281 -1.8062967 2.70944504 0 0 Z " fill="#F1E0C4" transform="translate(673,639)"/>
<path d="M0 0 C5.34175308 0.24568894 9.31942555 2.51989045 13.875 5.0625 C15.3897335 5.88705649 16.90538077 6.70993629 18.421875 7.53125 C19.18564453 7.94632812 19.94941406 8.36140625 20.73632812 8.7890625 C24.16251901 10.62188247 27.6400826 12.34474636 31.125 14.0625 C38.83731149 17.88296382 46.4328893 21.90041683 54 26 C54.94617188 26.50917969 55.89234375 27.01835937 56.8671875 27.54296875 C62.74451754 30.74451754 62.74451754 30.74451754 65 33 C65.25168228 35.05212402 65.25168228 35.05212402 65.25396729 37.63085938 C65.25960693 38.60676025 65.26524658 39.58266113 65.27105713 40.58813477 C65.26700867 41.66248779 65.26296021 42.73684082 65.25878906 43.84375 C65.2622937 44.97224365 65.26579834 46.1007373 65.26940918 47.26342773 C65.27824131 51.00901364 65.27237204 54.75441203 65.265625 58.5 C65.26697122 61.09309933 65.26891139 63.68619841 65.27142334 66.27929688 C65.27437662 71.72007882 65.27026 77.16078975 65.26074219 82.6015625 C65.24985731 88.89659727 65.25338279 95.19150249 65.264395 101.48653412 C65.27455514 107.53604426 65.27349173 113.58549089 65.26763153 119.63500977 C65.26629351 122.21232115 65.26794806 124.78963581 65.27259064 127.36694336 C65.27764676 130.96346912 65.26995834 134.55974308 65.25878906 138.15625 C65.26283752 139.23060303 65.26688599 140.30495605 65.27105713 141.41186523 C65.26541748 142.38776611 65.25977783 143.36366699 65.25396729 144.36914062 C65.25321323 145.22012329 65.25245918 146.07110596 65.25168228 146.94787598 C65 149 65 149 63 151 C58.71134405 150.67352663 55.5320483 149.47766641 51.796875 147.41015625 C50.82556641 146.87817627 49.85425781 146.34619629 48.85351562 145.7980957 C47.31727539 144.93897583 47.31727539 144.93897583 45.75 144.0625 C44.68458984 143.4749292 43.61917969 142.8873584 42.52148438 142.28198242 C40.35927019 141.08819245 38.1990915 139.89070796 36.04101562 138.68945312 C33.36249845 137.20138803 30.6764167 135.72902501 27.984375 134.265625 C2.19432012 120.19432012 2.19432012 120.19432012 -2 116 C-2.10000925 114.5244879 -2.13075227 113.04421741 -2.13371277 111.56532288 C-2.13797775 110.60762497 -2.14224274 109.64992706 -2.14663696 108.66320801 C-2.14618378 107.60396118 -2.14573059 106.54471436 -2.14526367 105.45336914 C-2.14862228 104.34452866 -2.1519809 103.23568817 -2.15544128 102.09324646 C-2.1649841 98.40720517 -2.16689604 94.72120914 -2.16796875 91.03515625 C-2.17117894 88.48546835 -2.17454282 85.93578064 -2.17805481 83.38609314 C-2.18405438 78.03351337 -2.18593652 72.68095063 -2.18530273 67.32836914 C-2.18470179 61.13504177 -2.19525525 54.94180145 -2.2110464 48.74849612 C-2.22567782 42.79884981 -2.22929135 36.84923022 -2.22869301 30.89956474 C-2.22987723 28.36411623 -2.23432353 25.82866715 -2.24202538 23.29323006 C-2.25176938 19.75408733 -2.24896941 16.21517139 -2.24291992 12.67602539 C-2.24853943 11.6188028 -2.25415894 10.5615802 -2.25994873 9.47232056 C-2.25575424 8.51180283 -2.25155975 7.5512851 -2.24723816 6.56166077 C-2.24778293 5.72412797 -2.24832769 4.88659517 -2.24888897 4.02368259 C-2 2 -2 2 0 0 Z " fill="#152029" transform="translate(237,388)"/>
<path d="M0 0 C1.155 -0.01998047 2.31 -0.03996094 3.5 -0.06054688 C15.46107088 -0.05379683 24.90620412 3.11036877 33.625 11.4375 C40.85605633 19.20120111 44.78174698 29.08400996 44.75 39.6875 C44.75386719 40.99460937 44.75386719 40.99460937 44.7578125 42.328125 C44.625 44.4375 44.625 44.4375 43.625 45.4375 C41.69832493 45.52498207 39.76848139 45.54447334 37.83984375 45.53515625 C36.08510742 45.53032227 36.08510742 45.53032227 34.29492188 45.52539062 C33.06322266 45.51701172 31.83152344 45.50863281 30.5625 45.5 C28.70915039 45.49323242 28.70915039 45.49323242 26.81835938 45.48632812 C23.75385883 45.47449608 20.68945279 45.45801173 17.625 45.4375 C17.37105469 44.46167969 17.11710937 43.48585938 16.85546875 42.48046875 C16.51128906 41.20816406 16.16710937 39.93585937 15.8125 38.625 C15.47605469 37.36042969 15.13960938 36.09585938 14.79296875 34.79296875 C13.49033031 30.98242989 13.49033031 30.98242989 10.625 28.4375 C4.677767 26.24238396 -2.9839243 26.62624217 -8.875 28.625 C-14.45002103 32.66689024 -17.23855486 38.02427221 -18.94433594 44.6484375 C-19.50628542 48.28772939 -19.55710587 51.88903389 -19.578125 55.5625 C-19.58667511 56.73752075 -19.58667511 56.73752075 -19.59539795 57.9362793 C-19.60482187 59.5937364 -19.61137154 61.25121202 -19.61523438 62.90869141 C-19.62486181 65.4017169 -19.65587639 67.89388916 -19.6875 70.38671875 C-19.97719394 88.07415936 -19.97719394 88.07415936 -12.375 103.4375 C-6.89861701 107.57272797 -2.25971027 109.31952694 4.625 108.4375 C8.6954398 107.10482932 11.75700166 105.44549807 14.5625 102.1875 C15.51772608 99.71515015 15.89588097 97.85105365 16.1875 95.25 C16.625 91.4375 16.625 91.4375 18.625 89.4375 C21.0234375 89.17871094 21.0234375 89.17871094 24 89.171875 C25.06734375 89.16929687 26.1346875 89.16671875 27.234375 89.1640625 C28.35328125 89.17179688 29.4721875 89.17953125 30.625 89.1875 C31.74390625 89.17976562 32.8628125 89.17203125 34.015625 89.1640625 C35.08296875 89.16664063 36.1503125 89.16921875 37.25 89.171875 C38.23226562 89.17413086 39.21453125 89.17638672 40.2265625 89.17871094 C42.625 89.4375 42.625 89.4375 44.625 91.4375 C46.0562806 101.10329109 43.10826815 110.46371083 37.46484375 118.2734375 C30.0184196 127.03207652 20.3342589 132.66361236 8.81152344 133.6875 C5.66246613 133.84780836 2.52802019 133.91820662 -0.625 133.9375 C-2.13344482 133.94716797 -2.13344482 133.94716797 -3.67236328 133.95703125 C-15.40728383 133.75626933 -25.83484468 130.41641607 -34.60546875 122.3984375 C-52.1866451 103.72874554 -50.15175339 76.51751913 -49.54980469 52.61669922 C-49.04264573 38.02873313 -44.68615449 22.68743117 -34.4375 11.875 C-23.99000337 2.47225303 -13.88918913 -0.08469018 0 0 Z " fill="#F0E0C4" transform="translate(477.375,637.5625)"/>
<path d="M0 0 C18.48 0 36.96 0 56 0 C56.66 7.92 57.32 15.84 58 24 C62.69091998 49.11021873 71.52578376 68.29721606 88.1328125 87.6574707 C88.6705127 88.28442337 89.20821289 88.91137604 89.76220703 89.55732727 C90.17067871 90.03340927 90.57915039 90.50949127 91 91 C71.79177098 91.95923448 52.59355284 92.2898259 33.36627197 92.53222656 C29.36263718 92.58344797 25.35905638 92.63859572 21.35546875 92.69335938 C13.57035884 92.79929731 5.78520248 92.90107078 -2 93 C-2.02491886 87.21997381 -2.04296264 81.43997965 -2.05493164 75.65991211 C-2.05992708 73.6979925 -2.06672571 71.73607654 -2.07543945 69.77416992 C-2.15662193 51.01146719 -2.15662193 51.01146719 -1.25610352 42.98510742 C-0.58187047 35.12633963 -0.6083831 27.19452313 -0.4375 19.3125 C-0.293125 12.939375 -0.14875 6.56625 0 0 Z " fill="#7B4222" transform="translate(380,444)"/>
<path d="M0 0 C1.20970459 0.00523682 2.41940918 0.01047363 3.66577148 0.01586914 C4.97094727 0.0190918 6.27612305 0.02231445 7.62084961 0.02563477 C9.00952213 0.03399138 10.39819401 0.04245634 11.78686523 0.05102539 C13.17944179 0.05603873 14.57202005 0.06060193 15.96459961 0.06469727 C19.38456394 0.07653105 22.80444367 0.09301659 26.22436523 0.11352539 C29.41998955 6.24670266 32.19802634 12.33611467 34.47436523 18.86352539 C38.37425689 29.75724495 42.77888849 40.43314989 47.22436523 51.11352539 C50.94907291 43.9149455 54.2434674 36.5980743 57.34936523 29.11352539 C57.77862305 28.09774414 58.20788086 27.08196289 58.65014648 26.03540039 C60.95603923 20.50125781 62.98019998 15.006834 64.58081055 9.22705078 C65.56328345 6.00046964 66.80197574 2.53591489 69.22436523 0.11352539 C71.296986 0.02585427 73.37256818 0.00656666 75.44702148 0.01586914 C76.70708008 0.0190918 77.96713867 0.02231445 79.26538086 0.02563477 C80.60587632 0.03399136 81.94637111 0.04245632 83.28686523 0.05102539 C84.63126465 0.05603879 85.97566583 0.06060197 87.32006836 0.06469727 C90.62154464 0.07653051 93.92293327 0.09301568 97.22436523 0.11352539 C98.48684251 4.4015864 97.95796472 6.55707868 96.04858398 10.55102539 C95.55543701 11.59991943 95.06229004 12.64881348 94.55419922 13.72949219 C94.012229 14.84622314 93.47025879 15.9629541 92.91186523 17.11352539 C92.36151611 18.274729 91.81116699 19.43593262 91.24414062 20.63232422 C89.58273207 24.13185631 87.90413767 27.62277995 86.22436523 31.11352539 C85.34247911 32.97080258 84.46212682 34.82880932 83.58374023 36.68774414 C81.57492861 40.93395079 79.55092523 45.17265203 77.52026367 49.40844727 C76.09840257 52.37646178 74.68066084 55.34642335 73.26342773 58.31665039 C72.27130583 60.39480671 71.2791197 62.47293237 70.28686523 64.55102539 C69.82594482 65.5167749 69.36502441 66.48252441 68.89013672 67.47753906 C68.45515869 68.38737549 68.02018066 69.29721191 67.57202148 70.23461914 C67.19053955 71.03311279 66.80905762 71.83160645 66.41601562 72.65429688 C65.22436523 75.11352539 65.22436523 75.11352539 63.60742188 77.7277832 C61.63860683 82.54747023 61.76432495 87.00459312 61.74780273 92.16430664 C61.73222321 93.21885544 61.71664368 94.27340424 61.70059204 95.35990906 C61.65319483 98.71527419 61.62533472 102.07043182 61.59936523 105.42602539 C61.56291007 108.79932717 61.52237168 112.17251034 61.47671509 115.54570007 C61.44942083 117.64231924 61.42809918 119.73902592 61.41317749 121.83576965 C61.39778427 123.24810127 61.39778427 123.24810127 61.38208008 124.68896484 C61.37233658 125.93756035 61.37233658 125.93756035 61.36239624 127.21138 C61.22436523 129.11352539 61.22436523 129.11352539 60.22436523 130.11352539 C58.30978242 130.21324325 56.39154206 130.24433128 54.47436523 130.24633789 C53.30905273 130.24762695 52.14374023 130.24891602 50.94311523 130.25024414 C49.71592773 130.24637695 48.48874023 130.24250977 47.22436523 130.23852539 C45.99717773 130.24239258 44.76999023 130.24625977 43.50561523 130.25024414 C41.75764648 130.24831055 41.75764648 130.24831055 39.97436523 130.24633789 C38.89670898 130.24520996 37.81905273 130.24408203 36.70874023 130.24291992 C34.22436523 130.11352539 34.22436523 130.11352539 33.22436523 129.11352539 C33.16430777 127.67393246 33.17291557 126.23139693 33.20947266 124.79101562 C33.22772598 123.86668732 33.24597931 122.94235901 33.26478577 121.99002075 C33.28625168 120.97761322 33.30771759 119.96520569 33.32983398 118.92211914 C34.2564557 86.68437051 34.2564557 86.68437051 21.88500977 57.71313477 C18.84786662 52.95872426 16.62975061 47.79757769 14.28686523 42.67602539 C11.48122552 36.67913918 8.54846302 30.83048249 5.2890625 25.06738281 C4.03768069 22.77093507 3.05686543 20.44457245 2.16186523 17.98852539 C0.98535177 14.89117362 -0.28383631 12.11846079 -2.02563477 9.30102539 C-3.75767575 6.14623646 -4.29241204 4.62761088 -3.77563477 1.11352539 C-2.77563477 0.11352539 -2.77563477 0.11352539 0 0 Z " fill="#F0E0C3" transform="translate(734.775634765625,638.886474609375)"/>
<path d="M0 0 C27.45131212 -0.14026177 54.90257041 -0.2460162 82.35416889 -0.31087303 C95.10089928 -0.34178979 107.84740681 -0.38392908 120.59399414 -0.45263672 C131.70601099 -0.51250493 142.81786641 -0.55116498 153.93004006 -0.56453097 C159.81204128 -0.57234204 165.69358074 -0.59065518 171.57543373 -0.63438034 C177.11669689 -0.67523815 182.65730999 -0.68764223 188.19870949 -0.67864609 C190.22755979 -0.68029082 192.25643282 -0.69214677 194.28515244 -0.71523285 C209.33217915 -0.87800038 218.73530878 1.32602491 230.05078125 11.91015625 C233.61331991 15.72971172 237 19.63559277 237 25 C163.41 25 89.82 25 14 25 C11.36 20.05 8.72 15.1 6 10 C3.58504723 6.65501766 3.58504723 6.65501766 1.03125 3.41796875 C0 2 0 2 0 0 Z " fill="#834622" transform="translate(351,150)"/>
<path d="M0 0 C14.35424795 10.07925401 20.57389224 30.53975649 23.92578125 46.9609375 C24.01214844 47.79882812 24.09851563 48.63671875 24.1875 49.5 C24.27918457 50.19552979 24.37086914 50.89105957 24.46533203 51.60766602 C24.65934206 54.05305356 24.6730597 56.09258032 24.1875 58.5 C21.8586388 60.8256086 20.20944213 62.09041861 17.4375 63.6875 C15.95825051 64.61889786 14.48045113 65.5526017 13.00390625 66.48828125 C12.21773926 66.97377441 11.43157227 67.45926758 10.62158203 67.95947266 C6.43234122 70.6108377 2.41665719 73.50583452 -1.625 76.375 C-8.41223745 81.14103806 -15.22315365 85.871544 -22.0625 90.5625 C-22.82409424 91.08634277 -23.58568848 91.61018555 -24.37036133 92.14990234 C-38.03879539 101.5 -38.03879539 101.5 -40.8125 101.5 C-46.70253727 74.29363735 -48.30495086 38.04900191 -32.9375 13.625 C-25.26803125 2.93481978 -13.91208079 -7.03455101 0 0 Z " fill="#131F29" transform="translate(264.8125,177.5)"/>
<path d="M0 0 C1.17111328 -0.01224609 2.34222656 -0.02449219 3.54882812 -0.03710938 C4.66580078 -0.03904297 5.78277344 -0.04097656 6.93359375 -0.04296875 C7.96411865 -0.04707764 8.99464355 -0.05118652 10.05639648 -0.05541992 C12.5625 0.1875 12.5625 0.1875 14.5625 2.1875 C14.80859566 4.41700172 14.80859566 4.41700172 14.80300903 7.24942017 C14.80575836 8.32076706 14.80850769 9.39211395 14.81134033 10.4959259 C14.80414978 11.67627914 14.79695923 12.85663239 14.78955078 14.07275391 C14.78984283 15.31174942 14.79013489 16.55074493 14.79043579 17.82728577 C14.78927904 21.23004594 14.77923071 24.63256512 14.76528788 28.03528261 C14.75280738 31.58938167 14.75161214 35.14348373 14.74923706 38.69760132 C14.74301438 45.4301412 14.72659296 52.16261632 14.70653808 58.89512765 C14.68420353 66.55886433 14.67319181 74.22260407 14.66314721 81.88636518 C14.64222738 97.65344765 14.60703617 113.42046548 14.5625 129.1875 C11.91421821 130.5116409 9.89569888 130.31707042 6.93359375 130.3203125 C5.25813477 130.32224609 5.25813477 130.32224609 3.54882812 130.32421875 C2.37771484 130.32035156 1.20660156 130.31648437 0 130.3125 C-1.17498047 130.31636719 -2.34996094 130.32023438 -3.56054688 130.32421875 C-5.23407227 130.32228516 -5.23407227 130.32228516 -6.94140625 130.3203125 C-7.97080322 130.31918457 -9.0002002 130.31805664 -10.06079102 130.31689453 C-12.4375 130.1875 -12.4375 130.1875 -13.4375 129.1875 C-13.535788 127.53224177 -13.56381976 125.87277328 -13.56448364 124.21459961 C-13.56730347 123.13765839 -13.57012329 122.06071716 -13.57302856 120.95114136 C-13.57100433 119.75941315 -13.5689801 118.56768494 -13.56689453 117.33984375 C-13.56864685 116.09284698 -13.57039917 114.84585022 -13.57220459 113.56106567 C-13.57586289 110.13139396 -13.57498961 106.70178221 -13.5718255 103.2721138 C-13.56930161 99.69044155 -13.57163952 96.10877195 -13.57321167 92.52709961 C-13.57503328 86.51122576 -13.57262728 80.49536417 -13.56787109 74.47949219 C-13.56242849 67.51477673 -13.56419115 60.55009054 -13.5696975 53.58537579 C-13.57422887 47.61596011 -13.57487906 41.64655326 -13.57225883 35.67713642 C-13.57069619 32.1073337 -13.57050193 28.53754476 -13.57379532 24.96774292 C-13.57720825 20.99020237 -13.57248389 17.01269486 -13.56689453 13.03515625 C-13.56993088 11.24756393 -13.56993088 11.24756393 -13.57302856 9.42385864 C-13.57020874 8.34691742 -13.56738892 7.2699762 -13.56448364 6.16040039 C-13.56410662 5.21870499 -13.56372959 4.27700958 -13.56334114 3.30677795 C-13.23297216 -2.25693269 -4.17876954 0.00229225 0 0 Z " fill="#EFDFC3" transform="translate(395.4375,638.8125)"/>
<path d="M0 0 C1.17111328 -0.01224609 2.34222656 -0.02449219 3.54882812 -0.03710938 C4.66580078 -0.03904297 5.78277344 -0.04097656 6.93359375 -0.04296875 C7.96411865 -0.04707764 8.99464355 -0.05118652 10.05639648 -0.05541992 C12.5625 0.1875 12.5625 0.1875 14.5625 2.1875 C14.81138897 4.39579773 14.81138897 4.39579773 14.80973816 7.19799805 C14.81393265 8.25804047 14.81812714 9.31808289 14.82244873 10.4102478 C14.81401947 12.16203842 14.81401947 12.16203842 14.80541992 13.94921875 C14.80731827 15.17524811 14.80921661 16.40127747 14.81117249 17.66445923 C14.81424865 21.03222725 14.80835643 24.39975121 14.79821944 27.76749039 C14.78945013 31.28729355 14.79119617 34.80709244 14.7915802 38.3269043 C14.79064303 44.23846656 14.78195199 50.14997756 14.76831055 56.06152344 C14.75258446 62.90184285 14.74731242 69.7421061 14.7480461 76.58244228 C14.74865594 83.15519937 14.74355449 89.72793812 14.73525429 96.3006897 C14.7317185 99.1012893 14.72989062 101.90188241 14.72936058 104.70248413 C14.72817178 108.61027013 14.71846871 112.51800917 14.70776367 116.42578125 C14.70844345 118.17757187 14.70844345 118.17757187 14.70913696 119.9647522 C14.70487198 121.02479462 14.70060699 122.08483704 14.69621277 123.17700195 C14.69453692 124.10172806 14.69286108 125.02645416 14.69113445 125.97920227 C14.5625 128.1875 14.5625 128.1875 13.5625 130.1875 C9.25001391 130.21636537 4.93755238 130.23425255 0.625 130.25 C-0.60669922 130.25837891 -1.83839844 130.26675781 -3.10742188 130.27539062 C-4.27724609 130.27861328 -5.44707031 130.28183594 -6.65234375 130.28515625 C-7.73636475 130.29039307 -8.82038574 130.29562988 -9.93725586 130.30102539 C-12.4375 130.1875 -12.4375 130.1875 -13.4375 129.1875 C-13.535788 127.53224177 -13.56381976 125.87277328 -13.56448364 124.21459961 C-13.56730347 123.13765839 -13.57012329 122.06071716 -13.57302856 120.95114136 C-13.57100433 119.75941315 -13.5689801 118.56768494 -13.56689453 117.33984375 C-13.56864685 116.09284698 -13.57039917 114.84585022 -13.57220459 113.56106567 C-13.57586289 110.13139396 -13.57498961 106.70178221 -13.5718255 103.2721138 C-13.56930161 99.69044155 -13.57163952 96.10877195 -13.57321167 92.52709961 C-13.57503328 86.51122576 -13.57262728 80.49536417 -13.56787109 74.47949219 C-13.56242849 67.51477673 -13.56419115 60.55009054 -13.5696975 53.58537579 C-13.57422887 47.61596011 -13.57487906 41.64655326 -13.57225883 35.67713642 C-13.57069619 32.1073337 -13.57050193 28.53754476 -13.57379532 24.96774292 C-13.57720825 20.99020237 -13.57248389 17.01269486 -13.56689453 13.03515625 C-13.56993088 11.24756393 -13.56993088 11.24756393 -13.57302856 9.42385864 C-13.57020874 8.34691742 -13.56738892 7.2699762 -13.56448364 6.16040039 C-13.56410662 5.21870499 -13.56372959 4.27700958 -13.56334114 3.30677795 C-13.23297216 -2.25693269 -4.17876954 0.00229225 0 0 Z " fill="#F2E1C4" transform="translate(210.4375,638.8125)"/>
<path d="M0 0 C3.63035069 0.66992631 6.41148219 1.55679448 9.66015625 3.328125 C10.9759668 4.03388672 10.9759668 4.03388672 12.31835938 4.75390625 C13.22392578 5.24761719 14.12949219 5.74132812 15.0625 6.25 C22.58127893 10.34312837 30.04057404 13.68357252 38 17 C38 43.07 38 69.14 38 96 C32.88944773 94.72236193 28.70255708 92.38742383 24.0625 89.9375 C23.18787109 89.48439453 22.31324219 89.03128906 21.41210938 88.56445312 C19.6328493 87.63024467 17.86715195 86.66969108 16.11688232 85.68223572 C13.00596098 83.94404972 13.00596098 83.94404972 9.64202881 82.55409241 C5.68632304 80.63053968 3.14122063 79.10107437 0 76 C-1.81574334 70.1799894 -1.52451094 64.63186036 -1.26953125 58.59375 C-1.2452548 56.90131724 -1.22676381 55.2087925 -1.21379089 53.51623535 C-1.16437431 49.08153744 -1.03691606 44.65246104 -0.89263916 40.2199707 C-0.75914465 35.68908762 -0.70017429 31.15728678 -0.63476562 26.625 C-0.49574174 17.74754248 -0.27417557 8.87424026 0 0 Z " fill="#7B4222" transform="translate(251,416)"/>
<path d="M0 0 C3.80622809 2.94117625 3.47021905 4.64576667 5 10 C-69.25 10 -143.5 10 -220 10 C-222 6 -222 6 -222 2 C-148.74 2 -75.48 2 0 2 C0 1.34 0 0.68 0 0 Z " fill="#542D1B" transform="translate(588,173)"/>
<path d="M0 0 C0.33 0 0.66 0 1 0 C1 8.58 1 17.16 1 26 C4.63 25.67 8.26 25.34 12 25 C14.45874486 24.86054131 16.91884506 24.74223352 19.37988281 24.65185547 C20.03348785 24.62749924 20.6870929 24.60314301 21.36050415 24.57804871 C27.28544169 24.36474677 33.21205854 24.20409166 39.13905716 24.06040764 C43.1018894 23.96385127 47.0624619 23.84935358 51.0234375 23.69335938 C54.88720008 23.54162307 58.74982836 23.43487538 62.61580658 23.3593483 C64.07861388 23.32320603 65.54112621 23.27136715 67.00278473 23.20306015 C78.3440203 22.68962492 78.3440203 22.68962492 82.28259277 25.80621338 C84.08060136 28.11540847 85.52834742 30.47326875 87 33 C88.11542653 34.3793205 89.25932823 35.73637306 90.4375 37.0625 C91.7059375 38.5165625 91.7059375 38.5165625 93 40 C73.79177098 40.95923448 54.59355284 41.2898259 35.36627197 41.53222656 C30.65253092 41.59253288 25.9388586 41.6579886 21.22517395 41.72252655 C14.15015967 41.81884563 7.07509115 41.90884614 0 42 C0 28.14 0 14.28 0 0 Z " fill="#542E1B" transform="translate(378,495)"/>
<path d="M0 0 C4.05878902 0.8117578 6.24078735 1.45604706 9.73046875 3.328125 C10.61669922 3.79863281 11.50292969 4.26914062 12.41601562 4.75390625 C13.33060547 5.24761719 14.24519531 5.74132812 15.1875 6.25 C16.9929857 7.21448552 18.79897404 8.17803071 20.60546875 9.140625 C21.93457275 9.8512207 21.93457275 9.8512207 23.29052734 10.57617188 C26.86067424 12.45228439 30.47221536 14.23874617 34.0949707 16.01074219 C36 17 36 17 37 18 C37.08783542 20.21855264 37.10694609 22.43988496 37.09765625 24.66015625 C37.0962413 25.32462265 37.09482635 25.98908905 37.09336853 26.6736908 C37.08775518 28.80333899 37.07520054 30.93288339 37.0625 33.0625 C37.05748671 34.50325369 37.05292351 35.94400903 37.04882812 37.38476562 C37.03778145 40.92321102 37.02050792 44.46159539 37 48 C30.80416802 46.14070834 25.27103076 43.76640057 19.625 40.625 C13.19164761 37.07809469 6.72477279 34.05671491 0 31 C0 20.77 0 10.54 0 0 Z " fill="#7C4222" transform="translate(251,416)"/>
<path d="M0 0 C5.754375 -0.0928125 5.754375 -0.0928125 11.625 -0.1875 C13.42251709 -0.22846802 13.42251709 -0.22846802 15.25634766 -0.27026367 C22.27772828 -0.32509057 26.84759098 0.2735922 32.3125 5 C35.36348177 8.61597839 35.2740228 12.20192561 35.22265625 16.71484375 C34.83223464 20.72180237 33.04069089 23.54303275 30.75 26.75 C24.8790805 30.94351393 17.41853635 30.24007347 10.5625 30.125 C7.076875 30.08375 3.59125 30.0425 0 30 C0 20.1 0 10.2 0 0 Z " fill="#121D28" transform="translate(566,715)"/>
<path d="M0 0 C11.88 0 23.76 0 36 0 C34.29091959 15.38172372 29.58214004 28.45584723 19 40 C14.90269817 36.24173547 12.17744043 32.41877438 9.5 27.5625 C9.11271729 26.86600342 8.72543457 26.16950684 8.32641602 25.4519043 C4.0124367 17.48047968 0 9.1845412 0 0 Z " fill="#F0E1C5" transform="translate(392,273)"/>
<path d="M0 0 C11.22 0 22.44 0 34 0 C34 11.24735312 30.90062653 20.81235787 26 30.8125 C25.66806641 31.50013428 25.33613281 32.18776855 24.99414062 32.89624023 C23.54512553 35.71776299 22.44943405 37.71052077 19.75 39.44921875 C19.1725 39.63097656 18.595 39.81273437 18 40 C13.11694146 33.87020311 9.1070685 27.69054279 5.625 20.6875 C5.29177734 20.01847656 4.95855469 19.34945313 4.61523438 18.66015625 C1.44913663 12.13292393 0 7.48407102 0 0 Z " fill="#F0E1C6" transform="translate(336,273)"/>
<path d="M0 0 C11.55 0 23.1 0 35 0 C33.2457864 14.03370881 26.87601296 28.18598055 19 40 C12.6585231 37.38960757 9.67135176 30.73791012 6.9375 24.75 C6.28099419 23.17106198 5.63634272 21.58717141 5 20 C4.32904297 18.41058594 4.32904297 18.41058594 3.64453125 16.7890625 C3.18433594 15.66242188 2.72414063 14.53578125 2.25 13.375 C1.60804688 11.80878906 1.60804688 11.80878906 0.953125 10.2109375 C0 7 0 7 0 0 Z " fill="#F0E1C6" transform="translate(507,273)"/>
<path d="M0 0 C11.55 0 23.1 0 35 0 C34.29084637 6.38238266 33.58743199 11.11491254 31.3125 16.875 C31.04775879 17.56045898 30.78301758 18.24591797 30.51025391 18.95214844 C27.4331954 26.72022171 24.17788308 34.21983472 18 40 C16.41369581 37.6477894 14.83091461 35.29332921 13.25 32.9375 C12.58484375 31.95233398 12.58484375 31.95233398 11.90625 30.94726562 C7.55829993 24.45731075 3.84563933 18.43829868 1.75 10.8125 C1.41484375 9.62269531 1.0796875 8.43289063 0.734375 7.20703125 C0 4 0 4 0 0 Z " fill="#EFE0C5" transform="translate(450,273)"/>
<path d="M0 0 C10.89 0 21.78 0 33 0 C33 9.00903614 33 9.00903614 30.75 14.4375 C30.29109375 15.55382812 29.8321875 16.67015625 29.359375 17.8203125 C28.68648437 19.39425781 28.68648437 19.39425781 28 21 C27.65453125 21.84304688 27.3090625 22.68609375 26.953125 23.5546875 C24.78079471 28.70061745 22.09035534 33.35180159 19 38 C9.48466323 33.73312267 5.52422625 20.3415649 1.88671875 11.203125 C0.41686872 7.05132112 0 4.58001785 0 0 Z " fill="#F1E3C7" transform="translate(564,273)"/>
<path d="M0 0 C5.506875 -0.12375 5.506875 -0.12375 11.125 -0.25 C12.2711377 -0.28641602 13.41727539 -0.32283203 14.59814453 -0.36035156 C20.7256735 -0.42696682 24.3942673 -0.1890957 29 4 C31.9224897 8.38373454 32.559524 11.77777599 32 17 C30.17419996 22.17310011 27.76999961 24.37163287 23 27 C20.09276004 27.91362956 17.49217139 28.11819035 14.453125 28.09765625 C13.69161133 28.09515869 12.93009766 28.09266113 12.14550781 28.09008789 C10.71223145 28.07643188 10.71223145 28.07643188 9.25 28.0625 C4.67125 28.0315625 4.67125 28.0315625 0 28 C0 18.76 0 9.52 0 0 Z " fill="#101B27" transform="translate(566,664)"/>
<path d="M0 0 C8.25 0 16.5 0 25 0 C25 0.33 25 0.66 25 1 C17.08 1 9.16 1 1 1 C1 10.24 1 19.48 1 29 C19.81 29 38.62 29 58 29 C58.33 28.34 58.66 27.68 59 27 C59.66 30.96 60.32 34.92 61 39 C40.63718487 39.99940197 20.38747167 40.08026564 0 40 C0 26.8 0 13.6 0 0 Z " fill="#552F1C" transform="translate(380,444)"/>
<path d="M0 0 C0.66 0 1.32 0 2 0 C3.36703591 3.89922479 4.4050207 7.69581194 5.1875 11.75 C6.96933772 20.36221567 9.32628813 28.81215708 11.6628418 37.28808594 C12.11397339 38.93212402 12.11397339 38.93212402 12.57421875 40.609375 C12.84838623 41.59905273 13.12255371 42.58873047 13.4050293 43.60839844 C14 46 14 46 14 48 C5.09 48 -3.82 48 -13 48 C-11.73183092 41.02507004 -10.45128961 34.54049555 -8.3984375 27.83203125 C-8.1571109 27.02634201 -7.9157843 26.22065277 -7.66714478 25.39054871 C-6.90864978 22.86282117 -6.14200181 20.33765761 -5.375 17.8125 C-4.85362046 16.08024243 -4.33278275 14.34782168 -3.8125 12.61523438 C-2.54790465 8.4082492 -1.27600048 4.20353929 0 0 Z " fill="#111C26" transform="translate(690,674)"/>
<path d="M0 0 C5.45856888 -0.13265092 10.91670497 -0.22610178 16.37643433 -0.2951355 C18.51380166 -0.32779076 20.65101895 -0.37259359 22.78787231 -0.42971802 C25.80592667 -0.5075883 28.82142438 -0.54046826 31.84033203 -0.56298828 C32.73880356 -0.59593491 33.63727509 -0.62888153 34.56297302 -0.66282654 C40.62759027 -0.64364911 40.62759027 -0.64364911 43.52587891 1.76293945 C45.02411342 3.49740377 46.35042911 5.23019748 47.59033203 7.15576172 C28.38210302 8.11499619 9.18388487 8.44558762 -10.043396 8.68798828 C-14.04703079 8.73920969 -18.05061159 8.79435744 -22.05419922 8.84912109 C-29.83930913 8.95505903 -37.62446549 9.0568325 -45.40966797 9.15576172 C-45.4520852 6.82281396 -45.45059734 4.48873605 -45.40966797 2.15576172 C-43.51592802 0.26202177 -40.20987996 0.91153714 -37.68701172 0.83935547 C-36.6186483 0.80764 -36.6186483 0.80764 -35.52870178 0.77528381 C-27.81043806 0.55629052 -20.0901809 0.40710406 -12.37011719 0.26855469 C-8.24628409 0.1939412 -4.12324029 0.10217139 0 0 Z " fill="#7A4324" transform="translate(423.40966796875,527.84423828125)"/>
<path d="M0 0 C7.20876068 5.00608381 9.65590465 12.16036312 12.25 20.1875 C12.518125 20.98091797 12.78625 21.77433594 13.0625 22.59179688 C14.30011532 26.35200058 15 28.96594932 15 33 C4.77 33 -5.46 33 -16 33 C-14.04640307 25.83681127 -12.26964083 19.681394 -9.125 13.125 C-8.79886719 12.40570313 -8.47273438 11.68640625 -8.13671875 10.9453125 C-6.00228424 6.42728771 -3.73887401 3.32199608 0 0 Z " fill="#F1E2C6" transform="translate(354,350)"/>
<path d="M0 0 C0.33 0 0.66 0 1 0 C1 57.09 1 114.18 1 173 C1.66 173 2.32 173 3 173 C3 116.24 3 59.48 3 1 C3.66 1 4.32 1 5 1 C5 57.43 5 113.86 5 172 C21.5 172 38 172 55 172 C38.5913302 180.2043349 18.34545054 174 0 174 C0 116.58 0 59.16 0 0 Z " fill="#9E7344" transform="translate(335,404)"/>
<path d="M0 0 C8.25 0 16.5 0 25 0 C23.05748298 7.77006809 21.21656109 14.68605844 18.125 21.9375 C17.63580078 23.15276367 17.63580078 23.15276367 17.13671875 24.39257812 C15.08222297 29.27300487 13.01907917 32.53406936 9 36 C3.25064005 24.44011669 0.57166339 12.86242629 0 0 Z " fill="#EEE0C6" transform="translate(618,273)"/>
<path d="M0 0 C5.15244417 1.88774894 6.31085802 5.91975602 8.5390625 10.625 C11.68454525 17.89156977 14 24.02375046 14 32 C6.08 32 -1.84 32 -10 32 C-10 22.9957204 -10 22.9957204 -8.828125 20 C-8.57756348 19.34386719 -8.32700195 18.68773437 -8.06884766 18.01171875 C-7.66351807 17.01591797 -7.66351807 17.01591797 -7.25 16 C-6.84273682 14.95779297 -6.84273682 14.95779297 -6.42724609 13.89453125 C-4.53512573 9.12338919 -2.44602797 4.51574394 0 0 Z " fill="#EFE1C6" transform="translate(628,351)"/>
<path d="M0 0 C0.66 0 1.32 0 2 0 C2 26.07 2 52.14 2 79 C1.67 79 1.34 79 1 79 C1 66.46 1 53.92 1 41 C-1.97 40.01 -4.94 39.02 -8 38 C-10.01852526 37.09946556 -12.01801354 36.15406808 -13.98828125 35.15234375 C-15.02404297 34.62962891 -16.05980469 34.10691406 -17.12695312 33.56835938 C-18.17818359 33.03017578 -19.22941406 32.49199219 -20.3125 31.9375 C-21.38306641 31.39544922 -22.45363281 30.85339844 -23.55664062 30.29492188 C-25.53436604 29.29305596 -27.51084149 28.28871561 -29.4855957 27.28100586 C-31.65198138 26.17730398 -33.82534881 25.0873256 -36 24 C-36 20.7 -36 17.4 -36 14 C-30.29778994 15.68989338 -25.08889297 18.23418682 -19.75 20.8125 C-18.85925781 21.23853516 -17.96851563 21.66457031 -17.05078125 22.10351562 C-10.99969468 25.00610505 -5.00479702 27.99760149 1 31 C0.67 20.77 0.34 10.54 0 0 Z " fill="#512D1B" transform="translate(287,433)"/>
<path d="M0 0 C0.99 0.495 0.99 0.495 2 1 C2.33 24.1 2.66 47.2 3 71 C13.395 70.505 13.395 70.505 24 70 C24.33 57.13 24.66 44.26 25 31 C25.33 31 25.66 31 26 31 C26.16721165 36.82055788 26.32781152 42.64124546 26.48217773 48.4621582 C26.53567894 50.44397949 26.5910143 52.42575212 26.64819336 54.4074707 C26.72987855 57.24940493 26.80505172 60.09144662 26.87890625 62.93359375 C26.90594131 63.82525742 26.93297638 64.71692108 26.96083069 65.63560486 C27.01275915 67.75647446 27.01188911 69.87852809 27 72 C24.46690278 74.53309722 17.47005092 73.18555171 14.0625 73.1875 C12.37737305 73.20586914 12.37737305 73.20586914 10.65820312 73.22460938 C9.58634766 73.22654297 8.51449219 73.22847656 7.41015625 73.23046875 C5.92721069 73.23663208 5.92721069 73.23663208 4.41430664 73.24291992 C2 73 2 73 0 71 C-0.24050903 68.0640564 -0.24050903 68.0640564 -0.22705078 64.25537109 C-0.22734283 63.56257553 -0.22763489 62.86977997 -0.22793579 62.1559906 C-0.22654031 59.86167966 -0.21096919 57.56769184 -0.1953125 55.2734375 C-0.19158314 53.68446022 -0.1887358 52.09548064 -0.18673706 50.50650024 C-0.17909453 46.32085846 -0.15944081 42.1353551 -0.1373291 37.94976807 C-0.11688396 33.68007276 -0.1077382 29.41035513 -0.09765625 25.140625 C-0.07619543 16.76035309 -0.04205211 8.38019375 0 0 Z " fill="#DEDACB" transform="translate(149,696)"/>
<path d="M0 0 C0.33 0 0.66 0 1 0 C1 10.23 1 20.46 1 31 C10.97744894 30.30407343 10.97744894 30.30407343 20.95385742 29.59350586 C22.20013916 29.50979736 23.4464209 29.42608887 24.73046875 29.33984375 C26.00301514 29.25081787 27.27556152 29.16179199 28.58666992 29.07006836 C31.61410195 29.00792166 34.08059985 29.25612611 37 30 C37 30.33 37 30.66 37 31 C47.89 31.495 47.89 31.495 59 32 C59 32.33 59 32.66 59 33 C39.2 33 19.4 33 -1 33 C-0.67 22.11 -0.34 11.22 0 0 Z " fill="#E1D7C2" transform="translate(540,736)"/>
<path d="M0 0 C6.93 0 13.86 0 21 0 C21 0.33 21 0.66 21 1 C14.73 1 8.46 1 2 1 C2 9.25 2 17.5 2 26 C8.27 26 14.54 26 21 26 C19 28 19 28 17.02880859 28.22705078 C16.24328613 28.21657715 15.45776367 28.20610352 14.6484375 28.1953125 C13.49867432 28.18781982 13.49867432 28.18781982 12.32568359 28.18017578 C11.35195801 28.16196777 10.37823242 28.14375977 9.375 28.125 C6.28125 28.08375 3.1875 28.0425 0 28 C0 18.76 0 9.52 0 0 Z " fill="#2D3134" transform="translate(566,664)"/>
<path d="M0 0 C1.39463043 0.00128143 2.78926298 0.00897515 4.18383789 0.02148438 C5.31534523 0.02686218 5.31534523 0.02686218 6.4697113 0.03234863 C15.80544399 0.09663079 25.13706422 0.35584485 34.46899414 0.61523438 C36.27042088 0.6636188 38.07185316 0.7117969 39.87329102 0.75976562 C44.21775946 0.87588819 48.56214422 0.99476269 52.90649414 1.11523438 C52.90649414 1.44523438 52.90649414 1.77523437 52.90649414 2.11523438 C45.67389456 2.2611449 38.4412235 2.40305211 31.20849609 2.54248047 C28.76023682 2.59011259 26.31199367 2.6385828 23.86376953 2.68798828 C7.20907478 3.02334067 -9.43540927 3.1870038 -26.09350586 3.11523438 C-26.09350586 2.78523437 -26.09350586 2.45523438 -26.09350586 2.11523438 C-25.10169312 2.07765015 -25.10169312 2.07765015 -24.08984375 2.03930664 C-21.11168281 1.92370335 -18.13386666 1.80081684 -15.15600586 1.67773438 C-13.59462891 1.61875977 -13.59462891 1.61875977 -12.00170898 1.55859375 C-10.51767578 1.49575195 -10.51767578 1.49575195 -9.00366211 1.43164062 C-7.6289978 1.37665405 -7.6289978 1.37665405 -6.2265625 1.32055664 C-3.26957651 1.03592516 -3.30983196 0.12329261 0 0 Z " fill="#B1783D" transform="translate(418.093505859375,572.884765625)"/>
<path d="M0 0 C1.75994274 3.16789693 2.24872886 5.24364431 3 9 C-5.91 9 -14.82 9 -24 9 C-23.67 7.68 -23.34 6.36 -23 5 C-15.41 5.33 -7.82 5.66 0 6 C0 4.02 0 2.04 0 0 Z " fill="#32383A" transform="translate(701,713)"/>
<path d="M0 0 C0.33 0 0.66 0 1 0 C1.16721165 5.82055788 1.32781152 11.64124546 1.48217773 17.4621582 C1.53567894 19.44397949 1.5910143 21.42575212 1.64819336 23.4074707 C1.72987855 26.24940493 1.80505172 29.09144662 1.87890625 31.93359375 C1.90594131 32.82525742 1.93297638 33.71692108 1.96083069 34.63560486 C2.01275915 36.75647446 2.01188911 38.87852809 2 41 C1 42 1 42 -1.31665039 42.11352539 C-2.31688232 42.10828857 -3.31711426 42.10305176 -4.34765625 42.09765625 C-5.42724609 42.09443359 -6.50683594 42.09121094 -7.61914062 42.08789062 C-8.75544922 42.07951172 -9.89175781 42.07113281 -11.0625 42.0625 C-12.20267578 42.05798828 -13.34285156 42.05347656 -14.51757812 42.04882812 C-17.34510351 42.03699747 -20.1725264 42.0205141 -23 42 C-23 41.67 -23 41.34 -23 41 C-15.74 40.34 -8.48 39.68 -1 39 C-0.67 26.13 -0.34 13.26 0 0 Z " fill="#E3D8C1" transform="translate(174,727)"/>
<path d="M0 0 C0.33 0 0.66 0 1 0 C1 8.91 1 17.82 1 27 C8.59 27 16.18 27 24 27 C20.69711664 29.20192224 19.72537273 29.23959968 15.89453125 29.1953125 C14.56578979 29.18781982 14.56578979 29.18781982 13.21020508 29.18017578 C11.52834106 29.15286377 11.52834106 29.15286377 9.8125 29.125 C6.244375 29.08375 2.67625 29.0425 -1 29 C-0.67 19.43 -0.34 9.86 0 0 Z " fill="#0B1117" transform="translate(567,716)"/>
<path d="M0 0 C10.56 0 21.12 0 32 0 C32 0.66 32 1.32 32 2 C36.95 2 41.9 2 47 2 C46.67 2.66 46.34 3.32 46 4 C43.2915983 4.02714434 40.58347279 4.04690846 37.875 4.0625 C36.73417969 4.07506836 36.73417969 4.07506836 35.5703125 4.08789062 C31.2610356 4.10646509 27.24483526 3.86117265 23 3 C23 2.67 23 2.34 23 2 C11.615 1.505 11.615 1.505 0 1 C0 0.67 0 0.34 0 0 Z " fill="#262B2C" transform="translate(491,574)"/>
<path d="M0 0 C0.33 0 0.66 0 1 0 C1 8.25 1 16.5 1 25 C0.67 25 0.34 25 0 25 C-0.33 21.04 -0.66 17.08 -1 13 C-4.84188612 16.4202491 -4.84188612 16.4202491 -6 19 C-6.66 19 -7.32 19 -8 19 C-6.00386732 12.2813095 -3.2708579 6.19265192 0 0 Z " fill="#1C2024" transform="translate(148,695)"/>
<path d="M0 0 C1.21751953 0.02255859 2.43503906 0.04511719 3.68945312 0.06835938 C6.69005482 0.1271947 9.68814797 0.2093586 12.6875 0.3125 C12.6875 0.6425 12.6875 0.9725 12.6875 1.3125 C4.4375 1.3125 -3.8125 1.3125 -12.3125 1.3125 C-12.3125 1.9725 -12.3125 2.6325 -12.3125 3.3125 C-9.6725 3.3125 -7.0325 3.3125 -4.3125 3.3125 C-4.3125 3.9725 -4.3125 4.6325 -4.3125 5.3125 C-7.6125 5.3125 -10.9125 5.3125 -14.3125 5.3125 C-14.3125 5.9725 -14.3125 6.6325 -14.3125 7.3125 C-14.9725 7.3125 -15.6325 7.3125 -16.3125 7.3125 C-16.6425 8.3025 -16.9725 9.2925 -17.3125 10.3125 C-18.125 8.125 -18.125 8.125 -18.3125 5.3125 C-13.99897951 -1.60541022 -7.42676527 -0.25967711 0 0 Z " fill="#242524" transform="translate(380.3125,426.6875)"/>
<path d="M0 0 C0.82242188 0.00451172 1.64484375 0.00902344 2.4921875 0.01367188 C4.49482396 0.02531511 6.49742227 0.04324444 8.5 0.0625 C8.83 1.0525 9.16 2.0425 9.5 3.0625 C0.92 3.0625 -7.66 3.0625 -16.5 3.0625 C-16.83 2.4025 -17.16 1.7425 -17.5 1.0625 C-11.61599345 0.20554033 -5.94090708 -0.06289234 0 0 Z " fill="#DED5C2" transform="translate(214.5,765.9375)"/>
<path d="M0 0 C10.23 0 20.46 0 31 0 C31 0.33 31 0.66 31 1 C29.89543457 1.01401855 29.89543457 1.01401855 28.76855469 1.02832031 C25.42835782 1.08204155 22.08955881 1.16568622 18.75 1.25 C17.59113281 1.26417969 16.43226563 1.27835938 15.23828125 1.29296875 C14.12324219 1.32519531 13.00820313 1.35742188 11.859375 1.390625 C10.83295898 1.41157227 9.80654297 1.43251953 8.74902344 1.45410156 C5.3162174 2.13578489 4.18911841 3.32468095 2 6 C1.01 7.485 1.01 7.485 0 9 C-0.66 9 -1.32 9 -2 9 C-1.125 2.25 -1.125 2.25 0 0 Z " fill="#F5EBD1" transform="translate(672,640)"/>
<path d="M0 0 C0.33 0 0.66 0 1 0 C1 8.25 1 16.5 1 25 C1.33 25 1.66 25 2 25 C2.25 28.3125 2.25 28.3125 2 32 C-0.015625 33.73046875 -0.015625 33.73046875 -2 35 C-1.85930243 31.04146699 -1.71148952 27.08322891 -1.5625 23.125 C-1.52318359 22.01640625 -1.48386719 20.9078125 -1.44335938 19.765625 C-1.19015781 13.1434301 -0.75898051 6.58403955 0 0 Z " fill="#282724" transform="translate(653,518)"/>
<path d="M0 0 C0 3.63 0 7.26 0 11 C-3.3 11 -6.6 11 -10 11 C-1.8852459 0 -1.8852459 0 0 0 Z " fill="#7A472B" transform="translate(613,519)"/>
<path d="M0 0 C5.27315333 0.4452885 10.01770224 1.08373163 15 3 C15 3.33 15 3.66 15 4 C13.02 4.33 11.04 4.66 9 5 C9.33 6.65 9.66 8.3 10 10 C2.51708428 3.84965831 2.51708428 3.84965831 0 0 Z " fill="#AA7743" transform="translate(591,146)"/>
<path d="M0 0 C0.82638376 2.89234315 1 4.88742431 1 8 C5.5838914 9.09315246 10.12511007 9.32282625 14.8125 9.5625 C15.99489258 9.62727539 15.99489258 9.62727539 17.20117188 9.69335938 C19.13394215 9.79878321 21.06695026 9.89983094 23 10 C23 10.33 23 10.66 23 11 C15.08 11 7.16 11 -1 11 C-1 3 -1 3 0 0 Z " fill="#BEBCB4" transform="translate(619,372)"/>
<path d="M0 0 C0.33 0.66 0.66 1.32 1 2 C4.02934491 2.65772428 4.02934491 2.65772428 7 3 C6.67 3.66 6.34 4.32 6 5 C6.99 5.66 7.98 6.32 9 7 C6.04893565 8.25348607 5.02593537 8.01044806 1.984375 6.78515625 C0.91703125 6.21667969 -0.1503125 5.64820313 -1.25 5.0625 C-2.32765625 4.49660156 -3.4053125 3.93070312 -4.515625 3.34765625 C-5.33546875 2.90292969 -6.1553125 2.45820313 -7 2 C-5.68 1.67 -4.36 1.34 -3 1 C-3 1.66 -3 2.32 -3 3 C-2.34 3 -1.68 3 -1 3 C-0.67 2.01 -0.34 1.02 0 0 Z " fill="#222627" transform="translate(247,360)"/>
<path d="M0 0 C0.33 0 0.66 0 1 0 C2.22517308 5.66642551 2.09228867 11.23708518 2 17 C1.67 17 1.34 17 1 17 C0.67 14.03 0.34 11.06 0 8 C-0.33 9.98 -0.66 11.96 -1 14 C-1.33 14 -1.66 14 -2 14 C-2.2236337 12.58566794 -2.42826476 11.16832382 -2.625 9.75 C-2.74101563 8.96109375 -2.85703125 8.1721875 -2.9765625 7.359375 C-3.00341607 4.6561152 -2.4028199 3.28084387 -1 1 C-0.67 0.67 -0.34 0.34 0 0 Z " fill="#AC4742" transform="translate(549,406)"/>
<path d="M0 0 C9.41002278 0.96355353 9.41002278 0.96355353 14 2 C14 2.33 14 2.66 14 3 C9.07262981 4.97094808 5.21979128 5.1799928 0 5 C0.33 4.34 0.66 3.68 1 3 C1.99 3 2.98 3 4 3 C4 2.34 4 1.68 4 1 C2.68 0.67 1.36 0.34 0 0 Z " fill="#A94541" transform="translate(448,339)"/>
<path d="M0 0 C0.66 0.66 1.32 1.32 2 2 C1.625 4.625 1.625 4.625 1 7 C0.01 7.33 -0.98 7.66 -2 8 C-2 9.65 -2 11.3 -2 13 C-2.99 13.33 -3.98 13.66 -5 14 C-3.45730076 9.27934033 -1.92205381 4.58335908 0 0 Z " fill="#CDC7B6" transform="translate(143,642)"/>
<path d="M0 0 C2.45823172 3.68734758 3.01242616 6.69699971 4 11 C3.01 11 2.02 11 1 11 C0.01 11.495 0.01 11.495 -1 12 C-1.02712066 10.56260487 -1.04645067 9.12506137 -1.0625 7.6875 C-1.07410156 6.88699219 -1.08570313 6.08648437 -1.09765625 5.26171875 C-1 3 -1 3 0 0 Z " fill="#272929" transform="translate(615,184)"/>
<path d="M0 0 C2.32590854 3.63423209 2.16265833 6.77088331 2 11 C1.34 10.01 0.68 9.02 0 8 C-0.66 8.99 -1.32 9.98 -2 11 C-2.33 8.69 -2.66 6.38 -3 4 C-2.34 4 -1.68 4 -1 4 C-0.67 2.68 -0.34 1.36 0 0 Z " fill="#1E2325" transform="translate(354,187)"/>
<path d="M0 0 C-1.32 1.32 -2.64 2.64 -4 4 C-3.67 4.66 -3.34 5.32 -3 6 C-5.88437779 4.70700306 -7.87219421 3.34058637 -10 1 C-3.71428571 -1.42857143 -3.71428571 -1.42857143 0 0 Z " fill="#A74C46" transform="translate(510,343)"/>
<path d="M0 0 C0.99 0.33 1.98 0.66 3 1 C2.8125 3.375 2.8125 3.375 2 6 C-0.5625 7.3125 -0.5625 7.3125 -3 8 C-1.125 1.125 -1.125 1.125 0 0 Z " fill="#D6CEBB" transform="translate(803,640)"/>
<path d="M0 0 C2 4 2 4 1.625 6.25 C1.41875 6.8275 1.2125 7.405 1 8 C-0.32 8.33 -1.64 8.66 -3 9 C-2.01 6.03 -1.02 3.06 0 0 Z " fill="#D9D1BF" transform="translate(308,685)"/>
<path d="M0 0 C0.66 0 1.32 0 2 0 C4.42857143 6.28571429 4.42857143 6.28571429 3 10 C2.67 9.01 2.34 8.02 2 7 C1.34 6.67 0.68 6.34 0 6 C-0.33 6.66 -0.66 7.32 -1 8 C-0.67 5.36 -0.34 2.72 0 0 Z " fill="#393C3D" transform="translate(690,674)"/>
<path d="M0 0 C0.33 0.66 0.66 1.32 1 2 C1.99 2.33 2.98 2.66 4 3 C4.33 5.97 4.66 8.94 5 12 C1.35224614 8.11690718 0.41474367 5.28798182 0 0 Z " fill="#D6CFC0" transform="translate(739,657)"/>
<path d="M0 0 C0.66 0 1.32 0 2 0 C2.33 1.32 2.66 2.64 3 4 C4.65 4.33 6.3 4.66 8 5 C7.34 6.32 6.68 7.64 6 9 C2.91910327 6.22719294 1.31224548 3.93673644 0 0 Z " fill="#AF4842" transform="translate(467,495)"/>
<path d="M0 0 C0.33 0.99 0.66 1.98 1 3 C1.66 3 2.32 3 3 3 C2.67 6.3 2.34 9.6 2 13 C0.12815629 9.25631258 -0.23999767 8.1599209 -0.125 4.25 C-0.10695312 3.45078125 -0.08890625 2.6515625 -0.0703125 1.828125 C-0.04710937 1.22484375 -0.02390625 0.6215625 0 0 Z " fill="#AF804D" transform="translate(207,273)"/>
<path d="M0 0 C0.66 0 1.32 0 2 0 C2.53154742 1.60064843 3.04988353 3.20568874 3.5625 4.8125 C3.85253906 5.70582031 4.14257812 6.59914062 4.44140625 7.51953125 C5 10 5 10 4 13 C3.32404685 11.58774074 2.65959941 10.16997095 2 8.75 C1.62875 7.96109375 1.2575 7.1721875 0.875 6.359375 C0 4 0 4 0 0 Z " fill="#AF7C46" transform="translate(278,191)"/>
<path d="M0 0 C0.66 0.99 1.32 1.98 2 3 C1.125 6.6875 1.125 6.6875 0 10 C-0.66 10 -1.32 10 -2 10 C-1.54177532 6.53058454 -1.10868317 3.32604951 0 0 Z " fill="#D4CCB9" transform="translate(320,654)"/>
<path d="M0 0 C-0.66 0 -1.32 0 -2 0 C-2.33 0.99 -2.66 1.98 -3 3 C-3.763125 3.12375 -4.52625 3.2475 -5.3125 3.375 C-8.20267136 3.88102792 -8.20267136 3.88102792 -11 6 C-9.90648447 2.82880497 -8.9873012 1.99216457 -6.0625 0.1875 C-3 -1 -3 -1 0 0 Z " fill="#BE4B44" transform="translate(406,346)"/>
<path d="M0 0 C0.99 0 1.98 0 3 0 C2.43454163 3.95820859 1.19097652 6.6659053 -1 10 C-2.27351308 7.45297384 -1.80191925 6.5717055 -1.0625 3.875 C-0.86785156 3.15054687 -0.67320312 2.42609375 -0.47265625 1.6796875 C-0.31667969 1.12539063 -0.16070312 0.57109375 0 0 Z " fill="#3C4245" transform="translate(427,277)"/>
<path d="M0 0 C0.66 0 1.32 0 2 0 C1.44271087 3.34373475 0.64826111 6.03312999 -1 9 C-1.66 9 -2.32 9 -3 9 C-2.01 6.03 -1.02 3.06 0 0 Z " fill="#2C3033" transform="translate(143,705)"/>
<path d="M0 0 C2.97 0 5.94 0 9 0 C9 0.66 9 1.32 9 2 C8.34 2 7.68 2 7 2 C7 2.66 7 3.32 7 4 C4.97954558 3.39816251 2.97888961 2.72693904 1 2 C0.67 1.34 0.34 0.68 0 0 Z " fill="#9A6F41" transform="translate(251,393)"/>
<path d="M0 0 C3.94139078 1.66751148 6.7892812 4.22710649 10 7 C9.34 7.66 8.68 8.32 8 9 C6.66368764 7.6905332 5.33102075 6.37734515 4 5.0625 C3.2575 4.33160156 2.515 3.60070312 1.75 2.84765625 C0 1 0 1 0 0 Z " fill="#A24843" transform="translate(431,373)"/>
<path d="M0 0 C0.66 0 1.32 0 2 0 C1.57742724 1.4835001 1.13643678 2.96176424 0.6875 4.4375 C0.44386719 5.26121094 0.20023438 6.08492188 -0.05078125 6.93359375 C-0.36402344 7.61550781 -0.67726563 8.29742187 -1 9 C-1.99 9.33 -2.98 9.66 -4 10 C-2.66666667 6.66666667 -1.33333333 3.33333333 0 0 Z " fill="#2A2D2F" transform="translate(535,294)"/>
<path d="M0 0 C0.66 0.99 1.32 1.98 2 3 C0.68 5.64 -0.64 8.28 -2 11 C-2.66 11 -3.32 11 -4 11 C-3.52269162 9.5410574 -3.04308958 8.08286504 -2.5625 6.625 C-2.29566406 5.81289063 -2.02882813 5.00078125 -1.75390625 4.1640625 C-1 2 -1 2 0 0 Z " fill="#33363A" transform="translate(591,294)"/>
<path d="M0 0 C0.99 0 1.98 0 3 0 C2.01 2.97 1.02 5.94 0 9 C-0.66 7.68 -1.32 6.36 -2 5 C-1.67 4.34 -1.34 3.68 -1 3 C-0.34 3 0.32 3 1 3 C0.67 2.01 0.34 1.02 0 0 Z " fill="#EDE3D0" transform="translate(140,705)"/>
<path d="M0 0 C0.33 0 0.66 0 1 0 C1 2.97 1 5.94 1 9 C-0.32 8.67 -1.64 8.34 -3 8 C-2.01 5.36 -1.02 2.72 0 0 Z " fill="#88411E" transform="translate(611,520)"/>
<path d="M0 0 C-1.32 1.32 -2.64 2.64 -4 4 C-4 3.34 -4 2.68 -4 2 C-5.32 2.33 -6.64 2.66 -8 3 C-8.33 2.34 -8.66 1.68 -9 1 C-5.8035914 -0.06546953 -3.34252724 -0.07427838 0 0 Z " fill="#A24440" transform="translate(421,340)"/>
<path d="M0 0 C2 3.875 2 3.875 2 5 C-0.31 5 -2.62 5 -5 5 C-3.35 3.35 -1.7 1.7 0 0 Z " fill="#AD4640" transform="translate(391,352)"/>
<path d="M0 0 C2.08901197 3.39464446 2.34361606 6.04841529 2 10 C1.34 10.66 0.68 11.32 0 12 C-1.53166168 7.91556885 -0.63081652 4.20544343 0 0 Z " fill="#2D3336" transform="translate(597,273)"/>
<path d="M0 0 C0.33 0 0.66 0 1 0 C1 1.65 1 3.3 1 5 C-0.98 5.99 -0.98 5.99 -3 7 C-3.33 5.68 -3.66 4.36 -4 3 C-3.01 3 -2.02 3 -1 3 C-0.67 2.01 -0.34 1.02 0 0 Z " fill="#A07746" transform="translate(309,252)"/>
<path d="M0 0 C6.15234375 0.5859375 6.15234375 0.5859375 8 1 C8.33 1.66 8.66 2.32 9 3 C8.05125 2.979375 7.1025 2.95875 6.125 2.9375 C3.09333717 2.77448174 3.09333717 2.77448174 1 4 C0.67 2.68 0.34 1.36 0 0 Z " fill="#182128" transform="translate(270,551)"/>
<path d="M0 0 C2.475 0.495 2.475 0.495 5 1 C4.67 2.65 4.34 4.3 4 6 C2.62437146 4.71034824 1.29233607 3.37310707 0 2 C0 1.34 0 0.68 0 0 Z " fill="#221E27" transform="translate(591,373)"/>
<path d="M0 0 C0.33 0 0.66 0 1 0 C1 1.98 1 3.96 1 6 C-0.65 6.33 -2.3 6.66 -4 7 C-2.68 4.69 -1.36 2.38 0 0 Z " fill="#22292F" transform="translate(474,304)"/>
<path d="M0 0 C0.66 0.66 1.32 1.32 2 2 C0.8125 3.5 0.8125 3.5 -1 5 C-3.6875 5.1875 -3.6875 5.1875 -6 5 C-4.06745228 2.9754262 -2.36841312 1.57894208 0 0 Z " fill="#202427" transform="translate(304,260)"/>
</svg>
