<svg width="400" height="400" viewBox="0 0 400 400" xmlns="http://www.w3.org/2000/svg">
  <!-- Main chest/mimic shape - simplified version based on the original -->
  <g transform="translate(200,200)">
    <!-- Chest body -->
    <path d="M -120 -60 L 120 -60 L 120 60 L -120 60 Z" fill="#B7423B" stroke="#7F4523" stroke-width="4"/>

    <!-- Chest lid/mouth -->
    <path d="M -120 -60 Q -120 -100 -80 -100 L 80 -100 Q 120 -100 120 -60" fill="#A7733C" stroke="#7F4523" stroke-width="4"/>

    <!-- Teeth/fangs -->
    <path d="M -100 -60 L -90 -40 L -80 -60 M -60 -60 L -50 -40 L -40 -60 M -20 -60 L -10 -40 L 0 -60 M 20 -60 L 30 -40 L 40 -60 M 60 -60 L 70 -40 L 80 -60 M 100 -60 L 90 -40 L 80 -60" fill="none" stroke="#F2E1C4" stroke-width="3"/>

    <!-- Eyes -->
    <circle cx="-50" cy="-30" r="15" fill="#F2E1C4"/>
    <circle cx="50" cy="-30" r="15" fill="#F2E1C4"/>
    <circle cx="-50" cy="-25" r="8" fill="#0F1B26"/>
    <circle cx="50" cy="-25" r="8" fill="#0F1B26"/>

    <!-- Lock/latch -->
    <rect x="-20" y="10" width="40" height="30" rx="5" fill="#A6723B" stroke="#7F4523" stroke-width="2"/>
    <circle cx="0" cy="25" r="5" fill="#7F4523"/>
  </g>
</svg>